<?xml version="1.0" encoding="UTF-8"?>
<svg id="Camada_1" data-name="Camada 1" xmlns="http://www.w3.org/2000/svg" viewBox="0 0 313.55 302.07">
  <defs>
    <style>
      .cls-1 {
        fill: #fff;
      }

      .cls-2 {
        fill: #fffff;
      }

      .cls-3 {
        fill: #fff;
      }
    </style>
  </defs>
  <g>
    <path class="cls-3" d="m66.17,222.67l1.54.23c-.14-.06-.56-.13-1.54-.23Z"/>
    <path class="cls-3" d="m64.87,221.98s-.09-.02-.13-.03c.02.02.06.03.13.03Z"/>
    <path class="cls-3" d="m115.14,117.14c-.26.51-.46.96-.53,1.23.39-.72.53-1.08.53-1.23Z"/>
    <path class="cls-3" d="m170.27,44.3c-.03.06-.04.11-.03.15.13-.07.16-.13.03-.15Z"/>
    <path class="cls-3" d="m84.19,225.42c-.23-.05-.47-.1-.69-.15-.16.09.51.19.69.15Z"/>
    <path class="cls-3" d="m103.14,137.43c0,.09,0,.17.02.23,0-.12,0-.18-.02-.23Z"/>
    <path class="cls-3" d="m139.4,236.73c.21.01.44.04.66.06-.23-.04-.47-.07-.66-.06Z"/>
    <path class="cls-3" d="m189.81,50.58c.29-.06.45-.11.53-.16-.33.03-.56.08-.53.16Z"/>
    <path class="cls-3" d="m190.05,49.27c-4.29.57.95.69.3,1.15.56-.05,1.44-.07,2.04-.09.59,0,.91-.04.35-.22.54.23,1.23.33,1.99.38.75.09,1.58.11,2.43.13.83.07,1.67.14,2.44.25.76.15,1.45.37,1.98.65.12-.05-1.15-.62.49-.44,2.36.62,2.08.92,2.95,1.39.37.02,1.42.33,2.34.63.89.36,1.64.72,1.46.69,1.55.53-1.23-1.46.99-.77,1.67.2,3.29,1.71,4.88,2.66.78.82.31.52-.49.02-.79-.52-1.94-1.2-2.38-1.36,1.83.99,3.59,2.14,5.25,3.44,1.22,1.42-.94-.18-2.39-1.29.91.85,1.99,1.77,2.95,2.49.95.74,1.79,1.31,2.2,1.42,1.03,1.2,1.66,1.77,2.47,3.03-1.14-.98-1.64-.43-3.28-1.97-2.61-2.64,1.39.53-.81-1.77l-.51.15c-.82-1.12-1.88-1.55-3.04-2.39-.58-.57.25-.04.71.25-2.08-1.58-3.76-2.88-5.74-3.33,1.45.98,3.31,2.1,4.87,3.25,1.57,1.14,2.84,2.3,3.22,3.01,1.82,1.45,3.54,3.06,5.12,4.86.18-.13-1.09-2.32.41-.89.03.49.36,1.23.77,2.12.21.44.46.92.75,1.43.27.52.56,1.09.87,1.7.08-1.21,2.46,3.65,2.26,2.23-.83-1.04-.69-1.83-.73-2.02,1.25,2.41.64.09,1.35,1.42.95,2.33.83,2.32.72,2.31-.12-.02-.23-.04.5,2.29-.61-.89-2-3.16-3.46-5.33-.07.14.22.72.57,1.4.33.69.66,1.52.75,2.08-.33-1.55.94.79.56-.44,1.72,3.46,3.47,7.84,4.2,12.74-.23-.17-.45-.76-.69-1.51-.23-.76-.46-1.69-.73-2.52-.49-1.7-1.1-3.02-1.4-2.18.36,1.1.58,1.65.8,2.14.2.5.42.93.51,1.88-.22,1.64.67,5.54.77,8.85l.21-1.47c.13.62.18,1.52.19,2.44-.03.92-.06,1.88-.08,2.61l-.12-.38c.06.48.09.97.14,1.45-.03.23-.06.28-.09.27.27,1.6-.2,5.69-.34,8.79.44.03.27-3.06.41-4.53.12-.39.43-3.24.65-1.85-.18,3.84.12,6.57-.39,10.95l.28-1.38c.15,1.43-.23,3.31-.48,5.4-.8,3.76-.21-2.87-.76-.6-.18-1.53.55-4.07.05-4.52-.27.77-.56,1.54-.86,2.31.12,2.03-.72,4.15-.83,5.55l.47-1.46c.42.36-.12,1.7-.29,2.39l.81-.91c.42-2.17.04-3.74.62-5.27-.28,3.9.38,3.08-.29,7.76-.29.17.04-.92-.08-1.43-.41,1.57-.14,3.34-.76,5.9.08-1.51.19-3.95-.46-2.11l.28,1.47c-.28,1.18-.39.66-.48,1.15-.38,1.69.58-.31,0,2.36-.17.38-.43,1.26-.47.85-.54,3.09-.09,1.51-.35,4.45.45-2.59,1.22-2.57.83.15-.74,3.79-.79,6.46-1.87,8.97l.02,1.76c-.28-1.18-.58,2.39-.87,3.59-.59.31,1.01-5.73.18-5.87-.52,2.5-.59,1.36-.67.51-.4,2.73.42,1.11.54,2.37-.21-.03-.86,4.62-1.04,2.94-.43,2.31.04,2.8-.35,4.49-.16-.29-.38-.63-.67-.51.14.23-.43,2.39-.52,2.82.16-.39.3.87.49-1.17.31.57-.75,4.76-.39,4.7-.5.14-.77,4.35-1.25,6.45,1.12-.05.15-4.01,1.16-4.6-.07,2.88-1.34,9.55-1.39,14.18-.68,3.94-.42-.05-.92.71.25-3.68.71-4.56.92-7.74-.66,3.44-1.24,9.15-1.16,11.74-.36,3.78-1.55,4.09-1.69,8.72.41-.58.48-.47.74-1.9.02,1.24-.23,2.66-.35,3.99.15.83.45-2.02.49-.17-.13.71-.31,2.24-.52,1.92v-.31c-.01,4.42-1.13,3.11-.7,6.94.2-.29.02-1.13.2-2.05.32-.69.55,1.68.56,3.43-.22-.33-.15,1.53-.3,2.75-.46.8.08-3.07-.16-3.7l-.28,3.38.11-.71.19,3.7c0-2.57.57-1.2.56-.07-.23,2.54-.41,5.1-.85,4.78.45.33.28,3.49.33,5.75.23-2.45.4-.3.53.42l-.56,3.67c-.02-3.89-.43.81-.72-.11-.44-1.13-.13-3.49,0-5.54-.96,3.98.28,5.65-.17,9.12-.21,0-.45-.31-.38-1.85-.15.61.35,3.18.08,5.54.15-.62.58-1.94.75.4l-.53,3.08c-.12,3.59.54,1.23.81,4.18l.34-1.94c.46.3.04,3.98.54,4.08,0-1.83-.41-2.86-.26-4.79.48-.73.27,2.45.55,3.55-.09,1.99-.14,2.79-.21,3.45-.02.17-.04.32-.06.49-.02.12-.04.25-.07.4-.05.27-.11.6-.21,1.09-.19-.05-.35-.3-.5-.59-.06-.14-.14-.3-.21-.46-.03-.08-.07-.16-.1-.24-.03-.07-.07-.14-.1-.31-.28-1.16-.58-2.25-1.07-1.93.03.67.06,1.39.1,2.13.03.27.06.54.09.82.06.57.11,1.19.11,1.68-.44-.08-.86-.19-1.16-.33-1.02.06-1.18.65-.85,1.15-.2-.01-.37-.03-.53-.05-.23-.03-.51-.08-.73-.13-.46-.1-.85-.21-1.3-.34l1.64.02c-4.26-.45-6.71-.59-11.13-1.33-2.52-.28-1.59.33-1.05.79l-2.73-.36.4.16c-.68.38-3.07-.17-4.87-.49.03-.21,1.14-.08,1.06-.22-1.57-.44-4-.79-5.33-.79.03-.21,1.21-.49,3.09-.04.19.08.08.14.27.23l3.26.25c-3.76-.35-5.89-1.25-5.71-1.73-3.76-.35,2.94,1.01-1.51.48-5.67-1.94-11.1-1.54-14.09-3.47-2.75-.15-6.05-.2-10.27-.86-.07.42-2.84-.3-2.52.28,3.94,1.21,7.66.43,10.76,1.73,1.83.1,1.28-.35,2.13-.44,1.6.23,3.11.53,3.27.82-3.76-.35-1.16.85-5.89.09.54.45,4.39.95,6.07,1.33-.53.11-.06.42,1.02.76-1.26.14-4.01-.02-5.47.04.53-.11-.36-.37.06-.42l-5.02-.21c-1.47-.5-1.83-.88-.98-.97-2.7-.57-7.4-.77-7.31-1.4-3.53-.48,1.05.55,1.33.78l-.31-.02,3.72.56c.29.79-4.19-.87-4.9-.28-.8,1.22-5.16-1.28-7.8-1.5l3.17-.45-2.65-.22c1.56-.12,1.66-.75,4.03-.76-3.61-.62-8.69-1.76-11.03-1.96-.85-.47-1.2-.84-.75-1.1-3.71,0-5.58-1.23-8.69-1.76-3.36-.19,3.24,1.03.76,1.1-.96-.41-2.8-.51-3.72-.56,1.03-.01,4.5.89,6.89,1.45-1.81-.31-1.68.18-2.22.29l3,.59c-.29.55-3.72-.56-5.17-.5.98-.37.49-.47,1.47-.83-2.64-.22-6.56-.86-8.73-1.55-1.27-.42,1.14-.08,1.87-.11-.54-.45-2.64-.22-3.08-.74.45-.26,1.61.23,2.53.28l-7.61-1.42c.03-.21,1.95.04,3.14.32-2.27-.62-3.99-.79-6.82-.53-2.58-.64-5.54-1.44-4.6-1.6-1.22-.07-.45.26-.48.47-3.5-.69-4.01-.02-6.13-.35l1.54.65c-3.35-.96-.9.51-3.86-.29.56-.32.44-.82,0-1.34-.56.32-2.42-.35-3.72-.56.74.54-2.87-.09-.82.66-3.07-.17-4.38-.95-6.68-.8,1.38.36-2.68-.01-1.51.48-2.93-.45-4.85-1.26-3.99-1.57,1,.2,2.59.64,2.53.28l-5.33-.79c-1.28-.42-2.97-.8-3.1-1.3-1.79.25-4.96-1.2-6.37-.78,1.87-.11,3.2.67,3.88.85l-.84-.05c.12.02.25.05.43.09l-2.43.43c2.16.68.48-.47,3.6.06,2.58,1.2-6.31.13-3.57,1.06,2.27.62,1.98-.17,3.93-.13l-.5-.1,4.37.39c.16.29-1.18.29-1.18.29,5.23.86,5.97,1.39,11.58,2.41-.39-.16-1.37-1.13,1.17-.85,1.83.1,1.96.6,3.46.9-.91-.05-1.79.25-2.95-.24v.56c-4.31-.03-2.19.86-7.94.11-.33.36-4.51-.12-7.6-.75l1.45.61c-3.32.16-.51-.66-4.72-.76-1.59-1-4.58-2.37-2.17-2.59-2.89-.65-3.95-.43-6.57-.86-1.51-.86.91-.51.7-1.16-1.93-.25-4.38-.39-3.01.18l-3.59-.84c-.08-.14,1.22.07,1.73.17-1.39-.36-4.15-.52-4.98-.42.3.02,1.23.07,1.61.23-1.53-.09-4.29-.24-4.51-.11,2.26.06,2.35.77,4.72.76-.22.13-.67.38-1.87.11,1.85.67,3.77.92,4.51,1.45-1.56-.57-2.67-.3-3.02-.29,1.43.35,4.32.72,5.32.7.1.71,5.64.81,3.63,1.19.34-.19,2.45.14,3.54.48-.15.27-2.98-.03-4.24.11-5.68-.6.18-.48-1.1-.91l-4.3-.66c.42.17-1.8.19,1.01.61-1.37.21-4.13.05-6.28-.64-.54.11,1.08.34,1.57.44-.53.11-3.36.37.14,1.06-1-.2,1.76-.04-.01-.56,1.42.15,5.19,1.07,3.62,1.19,1.73.15,4.98.45,6.41.57.35.37-1.22-.07-1.95-.04l4.96.63-1.36-.57c3.57.84,6.01.41,8.96.65-.49.47-2.91.12-4.86.08,1.72.94,1.26-.14,4.26.45.39.16.47.31.25.44l2.48-.07c.69.18.28.23-.03.21,4.21.1.02-.77,5.59-.11-3.28-.82-2.88-.09-5.68-.6-1.55-.65,3.32-.16,4.16-.25,2.69.57,2.86,1.42,6.35,1.55-2.45-.14-.18.48-3.6-.06-1.95-.04.97.41,1.32.78.92.05-.51-.66,1.99-.17l-.11.06,4.21.1c3.78.92,8.74.77,11.26,1.83l-.51-.66c2.42.35,5.83.89,7.56,1.06-.45.26-2.06.02-3.79-.14,4.31.81,8.17,1.1,11.16,1.12-2.05-.75-2.36-.77-4.32-1.37,2.94-.33,3.24,1.03,6.92,1.24,0,.56-1.18.28-.37.96,1.57-.12,4.07.37,5.83.33.82.68-.85.87-4.58.31-2.74-.93-5.98-.62-8.23-1.45l1.35.57c-2.84-.3-4.53-.68-6.98-.82l.11-.06-1.29.35,1.3.21c-.95.16-3.74.21-4.55.1,4.04.58,4.47-.24,6.45-.41,3.61.63,4.87,1.82,7.36,1.75.15.29,2.13.9.48.87-2.03-.18-3.38-.75-3.64-.41,2.11.33,1.27.42,4.49.89.69-.38,3.17-.45,5.53-.46,2.46.14,5.57.67,7.46,1.13-2.42-.35-4.91-.28-4.36.17,1.49-.27,4.66,1.18,4.06.37,2.8.51,7.53,1.27,7.74,1.91-2.7-.22-5.21-1-7.49-1.24.62.12,1.2.37.81.45l-3.31-.61c2.46.7,1.93.81,5.16,1.28-.19-.08-.58-.24-.27-.22.8.13,1.81.3,2.62.43v.56c2.46.14,6.98,1.59,11.45,1.91l-.41.05c3.5.69,3.97-.34,7.81.16-1.15.07-.68.39-.52.67,1.95.04,2.89.66,4.78,1.11-2.16-.68,1.59-.33.01-.77-.02-.57,3.91.08,5.91.47,1.09.9-6.29-.64-3.39.58,2,.39,2.56.08,1.17-.29,2.5.49,6.3,1.2,8.05,1.93,3.09-.04,4.25.45,6.27.07-1.61-.23-1.79.25-3.76-.35l2.29-.15c2.92.44,5.16,1.28,7.16,1.67l-2.15-.12.12-.07c-.84.09-3.53-.48-3.29-.05,1.98-.17,3.42.55,5.98.62l-.11.06c4.48.32,7.51,2.04,10.48,1.51-.81-.12-2.36-.77-1.82-.88.97.41,3.69.77,3.55,1.04l-.92-.05c2.5.49,4,.79,4.92.84.75-.24.09-.63,1.93-.53,4.39.95-1.93.53,1.03,1.33l2.09.15,1.04.08c.11,0,.53.05.83.09l.97.11,1.76.62c3.34.64,6.5,1.14,9.45,1.55-.19-4.04-.46-7.92-.72-11.72-.09-1.22-.18-2.47-.27-3.77-.07-1.08-.11-2.2-.12-3.38.28-.05.48,1.1.63,2.47.07.69.13,1.42.17,2.09.04.71.06,1.08.1,2.1.02-.25.04-.5.06-.76,0-.16.02-.19.03-.26l.02-.21c.03-.28.04-.57.04-.87,0-.6-.03-1.24-.07-1.9-.07-1.32-.18-2.73,0-4.09.09-2.52-.39-4.43-.7-4.03-.19-3.12.35-2.22.44-2.61-.57-1.02-.33-4.95-.37-7.46l.34-.11-.31-3.94c-.07,1.01-.35.09-.56.09l.07-1.01c-1.08,3.82.39,8.68-.71,12.61-.11-1.21-.32.41-.43-.81.05-1.01.1-1.21.23-1.31-.27-.61-.49-2.23-.5-.1-.72-.11-.47-4.37-.62-7.3.52-2.32.62,2.45.92,3.66-.02-1.11-.3-2.03-.08-3.65l.52.41c-.18-4.05-.44-1.12-.93-2.05-.65-1.12.18-3.64.17-4.75l.08,1.22c.35-3.12-.17-3.86.03-6.68l.5-1.3c-.72,3.52.5,4.37.15,6.39.74-5.13,1.05,1.16,1.45,2.78,0-2.22.13-4.23.5-5.42-.54-3.26.64-6.73.02-9.89.23-1.7.26,1.53.41-.28.31-3.31.5-6.83.52-10.37.19-1.81.41-1.48.68-1.96.59-4.34.71-7.39.85-10.55.15-3.15.32-6.41,1.18-11.13l.08,1.43c.36-1.98.71-3.66.48-4.71,1.29-2.35.81-8.57,2.35-11.61.91-4.17.16-4.51.6-7.84.21.04.42,1.11.82-.59,1.54-10.9,3.32-20.72,4.2-33.13.08.11.09.74.09,1.05.78-8.04-.12-16.13-.87-22.97-.27-1.27-1.25-5.05-1.37-3.8.26,1.59-.16,1.88-.47,1.83-.76-2.92-.86-3.66-.75-4.2.09-.53.26-.83-.4-2.78.29-1.47,1.23,2.34,1.79,2.19-.31-.96-.71-1.89-1.07-2.83-.38-.93-.82-1.85-1.23-2.77-1.04-3.27-3.02-6.12-4.38-8.78.66,1.16.74.05,1.62,2.13-.2-.28-.13-.06-.32-.33,1.29,2.21,1.58,2.84,1.99,3.34.4.51.75.96,1.72,3.04-.86-1.83-1.91-3.96-3.13-5.93-.3-.5-.6-.99-.89-1.47-.32-.47-.63-.93-.93-1.38-.6-.92-1.14-1.7-1.65-2.43.1.9-1.92-2.15-2.84-2.66l-.11-.2c-.15.13-1.74-1.37-2.27-1.78l-.2-1.06c-1.19-1,.11.52-1.07-.47-.85-.69-2.77-2.29-4.63-3.64-1.84-1.38-3.62-2.52-3.7-2.94-1.17-.66-2.03-.88-2.84-1.2-.41-.15-.82-.31-1.29-.5-.48-.16-1-.36-1.64-.63.26-.07.91.11,1.03.07-2.69-1.23-5.88-2.11-9.03-2.76-3.17-.62-6.33-.9-9.07-1.15-4.49.1-8.28.65-10.95,1.51,1.15-.27,4.59-.5,2.5.11-1.13.4-2.93.56-4.67,1.02.35-.43-4.52.64-1.05-.34-.51-.26-2.44.19-4.14.66-1.77.52-3.45,1.06-3.53.71-.4.19-1.83.76-3.39,1.38-.39.16-.79.31-1.17.49-.37.19-.74.38-1.09.56-.69.37-1.3.72-1.7,1.01-.53-.09,2.49-1.39,2.4-1.58l-2.14,1.1-.09-.19c-1.08.42-1.87.89-2.51,1.32-.64.43-1.14.81-1.58,1.18-.89.71-1.46,1.45-2.55,2.23l.04-.13-1.45,1.1,1.47-1.66c-2.42,1.64-3.25,3.02-5.71,5.04l-.35.07-1.31,1.41c.22-.24.25-.37.06-.27-.49.81-1.58,1.81-2.58,2.86-.98,1.07-1.96,2.12-2.39,2.86-.96.8-2.15,1.13-2.94,2.67l-.28-.68c1.38-1.57,1.73-1.77,2.11-1.99.37-.23.74-.48,2.22-2.12-.73.42-1.68,1.14-2.77,2.05-1.05.94-2.19,2.12-3.39,3.36-1.22,1.23-2.34,2.63-3.47,3.97-1.13,1.34-2.2,2.66-3.09,3.87-1.32,2.06-3.36,4.55-4.99,6.89-1.68,2.31-3.08,4.39-3.22,5.53l-.05-.65c-1.6,2.18-3.25,4.35-4.82,6.56-3.62,5.87-7.58,11.75-9.79,16.52l-1.02,1.07c-.86,2.63-3.13,6.64-5.14,10.53-2.03,3.87-3.87,7.59-4.12,9.48-1.74,2.54-.02-1.06-.08-1.44-1.19,1.92-2.2,5.66-3.75,7.27-.19-.1,1.32-2.89.53-1.69-1.12,1.26-.77,2.25-2.02,3.67.74-.53-.6,3.03-1.8,5.5q.25-.44.39-.61c.46-.21-.54,1.57-1.01,2.59,0,0-.02-.13.08-.41-6.05,12.83-12.79,27.56-19.07,41.07l.83-2.63c-.65,2.05-2.32,5.45-2.86,6.54l.09-.3c-2.14,3.42-1.2,4.37-3.05,6.92l.17-.59c-1.81,4.44-3.54,6.82-4.93,11.32-1.59,3.33-1.75,2.84-2.94,5.12-.76,2.01-.75,3.09-.72,3.22l.4-.95c.75-.91-.52,2.21-.91,3.69.95-.84,1.59.05,3.69-3.74.95-3.01,1.97-2.52,3.2-5.86.03-2.17,2.41-4.52,3.01-7.77-.16,1.8,1.74-3.46,1.2-.62.88-1.07,2.22-6.55,3.7-8.69-.06.43.1.39-.07.97,1.11-3.39,1.29-2.1,2.35-4.52l-.55-.13c.24-1,.72-1.13,1-2-.35.63-1.2,1.92-1.08,1.09.37-1.17.61-2.18,1.14-3.38.2.07-.08.95-.27,1.55,0,0,1.19-2.6,1.51-2.67-.25,1-.77,2.21-.85,3.16,1.65-3.37.28-.2,1.42-1.7-.81.2,1.07-3.08,1.77-4.98.32-.08-.51,1.33-.54,1.87,2.62-3.06,2.19-5.35,4.51-9.75.03.13-.16.7-.26,1,.82-2.2,2.06-3.41,2.37-4.94,1.06-1.97.84-.05,2.3-3.17-1.05.62,1.89-3.59,1.29-3.98l1.54-2.19c.69-2.26-1.36.02.62-4.09,2.09-3.6.87.88,2.29-1.12l.11-1.08,1.17-1.68-.11.29c.44-1.14,1.55-3.07,1.74-2.98.05.25-.55,1.43-.49,1.67.59-1.97,4.54-6.64,4.59-9,.73-.96,1.89-3.13,2.04-2.69.08-1.19,2.7-4.66,3.21-6.21.04.26,1.01-.94,1.49-2.07-.95,1.33-.61.36-.3-.73.99-1.08,2.72-4.74,3.52-4.99.83-2.09.08-1.58-.04-2.21,1.01-1.07,3.26-5.02,3.41-4-.68,1.01-2.18,3.3-1.54,3.08,1.38-1.88.35-.96,1.26-2.64.03.18,1-.92.98-.51.51-1.01,1.31-2.37,2.22-3.71-1.52,2.02.42-1.62-.57-.45l-.82,2.33c-1.45,2.55-.62.35-1.32,1.22,2.49-4.52,1.38-3.99,3.65-8.29.57-.72,1.57-2,1.84-2.43-.81,1.4-.14,1.45.44.72.96-2.59,2.82-3.94,4.12-5.73-1.16,1.53-.94.48-.69-.19,2.2-4.09,1.17-1.41,2.49-2.95,1.91-3.01,3.73-5.28,5.36-7.47,1.68-2.14,3.25-4.14,4.75-6.56l-2.02,1.85-.1,1.03c-1.56,1.46-.73-1-.3-2.18.16-.07.74-.83,1.2-1.41.48-.56.84-.95.53-.31l1.9-2.82c-.49.26-1.76,2.06-.98.65.81-.79,3.04-3.47,1.94-1.55,1.08-1.43,2.45-3.25,1.95-3.16,1.83-2.23.32.66-.33,1.77,1.48-1.72,1.64-1.2,1.32-.59l1.97-2.45c-.33.62-.17.76-.49,1.37.74-.73,1.23-1.47,1.72-2.16.52-.66,1.03-1.28,1.79-1.77l.2-.88c2.02-2,3.04-2.74,3.93-3.55.45-.4.89-.8,1.45-1.32.56-.52,1.28-1.09,2.25-1.94l-.86.32c2.56-3.03,2.47-1.52,6.44-4.78,1.14-.87,2.08-1.61,2.67-2.13.61-.48.85-.81.55-.94,1.37-.98,1.84-.91,2.59-1.09.52-.4,1.35-1.01,2.31-1.6.47-.31,1-.56,1.53-.76.53-.21,1.07-.37,1.57-.48-1.24.66-2.26,1.09-3.38,1.75.28.16,1.27-.3,2.52-.73.62-.23,1.28-.48,1.92-.72.66-.18,1.29-.34,1.81-.43.34-.16.85-.41,1.53-.69.7-.27,1.52-.59,2.38-.92,1.7-.64,3.55-1.24,4.89-1.68-1.3-.2-.96-.95,1.53-1.68-.35.33,3.45-.04,5.19.16-.83.3,3.83.75.23.89-1.05-.11-1.56-.55-2.99-.28.89.24,3.21.5,5.53.84-.18.14-1.4.37-2.61.37.66-.14.27-.24.17-.37Z"/>
    <path class="cls-3" d="m84.19,225.42c.14.03.27.06.41.09l-.48-.2c.16.07.16.1.08.11Z"/>
    <path class="cls-3" d="m231.71,97.54c.02.19.09.55.15.56-.04-.24-.08-.45-.15-.56Z"/>
    <path class="cls-3" d="m224.54,151.83c.06-.05.1-.05.15-.07-.02-.05-.07-.05-.15.07Z"/>
    <path class="cls-3" d="m81.24,221.2l.99.06c-.35-.06-.53-.03-.99-.06Z"/>
  </g>
  <g>
    <path class="cls-1" d="m232.1,77.28c-2.27,3.78-.56,8.18-.38,8.61,2.1,5.16,8.59,8.73,14.16,6.54,6.62-2.6,8.44-11.95,4.8-16.73-4.2-5.5-15.11-4.19-18.58,1.57Z"/>
    <g>
      <path class="cls-3" d="m232.98,77.11l.09-.13s-.04.04-.09.13Z"/>
      <path class="cls-3" d="m232.8,77.15h0s0,0,0,0Z"/>
      <path class="cls-3" d="m232.68,89.86c-.05-.05-.1-.08-.14-.1.07.07.11.09.14.1Z"/>
      <path class="cls-3" d="m242.42,92.07s0,.02,0,.03c.01,0,.02-.02,0-.03Z"/>
      <path class="cls-3" d="m234.16,75.7l-.06.04s.06-.01.06-.04Z"/>
      <path class="cls-3" d="m231.14,87.46s-.03,0-.04,0c.02,0,.03,0,.04,0Z"/>
      <path class="cls-3" d="m239.45,73.68s.04-.02.06-.03c-.02,0-.05.01-.06.03Z"/>
      <path class="cls-3" d="m244.71,94.22s.06-.04.06-.05c-.04.02-.07.03-.06.05Z"/>
      <path class="cls-3" d="m244.68,93.9c-.54.2.16.16.1.27.15-.06.47-.11.3-.15.35.11.84-.38,1.2-.33,0-.02-.2-.02,0-.14.3-.15.31-.06.45-.08.07-.1.51-.35.48-.3.18-.14-.3-.07-.06-.28.12-.21.43-.22.61-.4.29-.08-.2.23-.3.31.24-.14.45-.33.67-.49.24-.08-.02.17-.23.29.32-.11.64-.41.66-.56.19-.09.25-.19.43-.28-.11.17.03.33-.21.53-.43.27.07-.22-.31,0l.03.11c-.19.05-.27.2-.43.32-.11.04,0-.05.05-.1-.29.21-.57.31-.76.53.51-.09,1.02-.68,1.28-.67.25-.21.46-.47.67-.72-.04-.04-.34.11-.19-.12.17.03.42-.11.72-.34-.19,0,.32-.51.11-.46-.06.18-.2.16-.23.16.23-.26-.06-.13.06-.27.44-.45.05.08.51-.34-.04.14-.16.49-.35.8.06.03.23-.27.39-.33-.2.1,0-.2-.14-.1.15-.21.29-.45.44-.7.14-.25.27-.53.43-.78.12.2-.46.94-.15.94.16-.27.07-.33.22-.52.22-.1.45-.57.64-.93l-.14.13c.03-.16.2-.39.3-.55v.06s.05-.18.05-.18c.02-.02.03-.02.03-.02.04-.2.33-.61.43-.98-.1-.04-.15.34-.23.5-.04.03-.25.32-.24.14.22-.41.2-.76.41-1.23l-.09.14c-.01-.18.13-.36.19-.6.2-.4.04.36.18.12.04.2-.19.45-.08.54l.25-.21c0-.25.2-.47.23-.63l-.12.15c-.1-.07.03-.2.07-.28l-.19.07c-.11.24-.01.46-.17.6.1-.45-.07-.4.09-.92.07,0,0,.11.02.18.1-.17.03-.39.17-.67-.01.18-.03.47.12.27l-.07-.19c.06-.13.09-.06.11-.12.06-.19-.14.01-.04-.29.03-.04.08-.14.1-.09.08-.36,0-.18,0-.53-.06.3-.25.27-.21-.04.12-.43.02-.74.21-1.02l-.06-.2c.1.14.07-.27.1-.41.14-.04-.07.66.14.68.05-.29.1-.16.15-.06.01-.32-.14-.13-.21-.28.05,0,.07-.54.17-.34.01-.27-.12-.32-.1-.52.05.03.12.07.19.05-.04-.02.01-.28.02-.33-.03.05-.11-.09-.07.14-.1-.06,0-.56-.09-.54.13-.03-.01-.51.01-.76-.27.05.15.45-.07.55-.14-.32-.07-1.11-.33-1.6-.04-.46.1-.02.19-.13.13.41.08.53.16.89.04-.41-.17-1.06-.3-1.33-.09-.43.14-.55-.09-1.05-.06.1-.08.09-.06.26-.08-.13-.1-.3-.15-.45-.08-.07.01.25-.1.06-.01-.08-.06-.26.01-.25l.02.03c-.27-.45.05-.43-.3-.77-.02.05.07.12.09.23-.03.1-.23-.1-.35-.27.07,0-.07-.17-.11-.3.05-.14.18.31.27.34l-.16-.37.02.08c-.09-.12-.19-.23-.3-.33.19.24-.03.18-.11.08-.14-.26-.29-.52-.18-.55-.12.04-.29-.29-.5-.46.16.24-.05.09-.14.05l-.2-.39c.33.31.01-.14.14-.11.18.02.32.27.47.46-.16-.49-.54-.42-.74-.8.04-.04.11-.05.22.09-.03-.07-.32-.23-.49-.44.03.07.08.25-.16.11l-.2-.32c-.31-.29-.2.02-.51-.15l.12.21c-.1.07-.36-.28-.44-.19.16.13.31.13.46.29-.01.15-.26-.12-.39-.15-.32-.32-.26-.24-.49-.5.09-.17.62.08.69-.16-.42-.21-1.02-.49-1.25-.7-.4-.11-.43.05-.42.17-.16-.04-.23-.09-.32-.16h.2c-.49-.1-.75-.2-1.25-.31-.29-.04-.21.1-.17.2l-.3-.06.04.04c-.1.1-.35,0-.54-.07.01-.05.13-.03.13-.07-.16-.1-.44-.13-.59-.1,0-.05.15-.15.36-.08.02.02,0,.03.02.05l.37.03c-.42-.06-.65-.2-.61-.33-.43,0,.32.18-.19.15-.31-.17-.63-.2-.9-.24-.28-.01-.52-.03-.69-.22-.32.07-.69.14-1.17.19,0,.11-.32.06-.27.18.45.11.85-.24,1.21-.02.21-.04.14-.13.24-.18.18,0,.36.02.37.09-.43.04-.13.25-.66.23.06.09.49.08.68.11-.06.05,0,.11.11.15-.14.08-.44.14-.6.2.06-.05-.04-.08,0-.11l-.54.12c-.16-.07-.21-.15-.12-.21-.3-.02-.79.15-.8-.01-.38.04.13.09.16.13h-.03s.4-.02.4-.02c.05.18-.46-.02-.52.16-.04.35-.57-.1-.85.01.1-.09.2-.2.3-.28-.09.02-.19.06-.28.09.15-.12.14-.28.39-.39-.4.01-.98.05-1.24.12-.11-.07-.17-.14-.14-.22-.38.2-.64.06-1,.13-.35.18.4.03.16.21-.12-.03-.31.06-.4.11.1-.07.51-.09.78-.11-.2.04-.15.15-.19.21l.33-.06c0,.15-.4.11-.53.22.07-.15.01-.14.08-.29-.27.13-.7.21-.96.22-.15,0,.1-.11.17-.16-.09-.08-.27.14-.35.05.02-.09.17-.07.26-.12l-.84.25s.18-.14.32-.16c-.27.03-.45.12-.68.39-.3.05-.64.15-.58.03-.11.09,0,.09.01.14-.38.15-.34.33-.55.44h.21c-.39.08,0,.19-.35.27,0-.11-.07-.21-.18-.28,0,.12-.23.15-.36.23.13.04-.23.25.03.21-.25.25-.46.21-.6.45.15-.06-.18.25-.03.23-.25.21-.5.25-.5.11.09-.06.26-.14.2-.2l-.46.39c-.15.05-.32.15-.41.08-.07.21-.48.34-.48.56.07-.22.28-.24.35-.29l-.05.08s.02-.02.04-.03l-.04.33c.23-.12-.06-.13.19-.38.34-.07-.28.7.02.56.22-.13.05-.24.16-.44-.01.01-.03.02-.04.03l.32-.36c.06.04-.02.17-.02.17.46-.35.56-.36,1.1-.66-.05,0-.27-.1-.05-.27.15-.15.23-.06.38-.13-.07.07-.09.21-.24.22l.08.11c-.29.39-.04.34-.48.75.04.1-.26.41-.54.58l.18-.03c-.13.34-.16-.09-.36.32-.24,0-.63.08-.57-.2-.25.2-.26.34-.45.54-.24.03-.06-.17-.2-.24-.14.16-.22.44-.07.36l-.28.29s.05-.13.09-.17c-.12.11-.23.4-.23.5.01-.03.05-.13.1-.15-.06.16-.17.44-.15.47.07-.23.23-.16.29-.41.02.04.06.12-.03.21.19-.12.29-.29.43-.29-.16.09-.13.24-.14.28.11-.1.26-.36.28-.47.13.08.36-.46.36-.2-.02-.06.13-.22.23-.28.05.06-.12.29-.14.43-.3.48-.1-.09-.22-.03-.09.12-.16.24-.25.36.04-.02,0,.21.15-.02,0,.17-.08.43-.28.56.01.07.1-.07.13-.1.01.07.01.38.23.12-.06.07.03-.18-.12-.07.06-.12.33-.38.33-.2.06-.15.2-.44.29-.55.09.02-.06.11-.08.18l.3-.37-.16.04c.3-.2.29-.54.48-.77.05.12-.12.29-.19.48.24,0,.01-.16.26-.34.05,0,.08.01.09.05l.11-.24c.07-.03.05.02.03.04.23-.37-.13-.14.27-.54-.31.16-.17.25-.4.42-.19.03.15-.34.18-.44.25-.14.37-.02.61-.29-.17.19.05.1-.22.31-.11.18.12-.01.19.02.06-.07-.13-.09.1-.2v.02s.28-.34.28-.34c.19-.07.36-.22.52-.36.17-.12.34-.22.5-.2l-.12-.1c.22-.12.55-.28.7-.38,0,.09-.16.17-.31.28.41-.19.77-.37,1.02-.59-.25-.02-.27,0-.5,0,.22-.29.38,0,.71-.22.05.13-.07.15.06.25.12-.15.38-.21.54-.33.13.12-.01.24-.37.38-.32-.01-.56.29-.82.26l.17.03c-.26.13-.44.17-.63.34v-.02s-.05.18-.05.18l.12-.06c-.05.11-.25.34-.32.38.36-.19.29-.4.42-.6.35-.14.58.06.77-.14.04.06.26.05.12.16-.18.1-.34.07-.33.16.2-.07.14,0,.44-.12.02-.13.21-.34.41-.5.22-.12.54-.2.74-.21-.24.07-.45.24-.37.32.11-.16.49-.02.38-.17.28-.07.76-.16.81,0-.26.08-.53.06-.74.15.06-.01.13.01.1.05l-.33.06c.26.01.22.07.53-.02-.02,0-.07-.02-.04-.04.08-.02.18-.05.26-.06l.04.13c.23-.1.71,0,1.13-.16l-.04.03c.35,0,.36-.27.74-.32-.11.07-.05.13-.03.19.19-.08.29.03.48.06-.22-.07.15-.15-.01-.19-.01-.15.39-.14.59-.11.11.19-.63.07-.33.26.2.03.25-.07.11-.11.25.03.63.07.8.19.31-.13.42-.01.63-.16-.16-.02-.18.11-.37,0l.23-.1c.29.04.5.18.7.23l-.22.03v-.02c-.07.04-.33-.03-.32.07.2-.09.33.05.59,0v.02c.44-.03.65.38.99.19-.08-.02-.2-.15-.14-.19.08.08.34.13.31.2h-.09c.24.08.36.14.45.16.09-.06.05-.15.23-.13.38.22-.24.13,0,.31l.4.06.05.11c.26.14.48.26.74.33.26.08.53.15.76.36-.08.12-.44-.12-.59-.17.11.18.4.22.54.45.17.16.38.17.41.09.26.14.11.19.12.23.16-.04.37.27.55.42l-.06.06.33.2c-.06-.07.06-.06.1-.09l.05.08c-.05-.44-.67-.5-.72-.97.1.06.03-.09.13-.02.06.08.06.1.05.13.09,0,.24.07.1-.08.13-.12.39.23.63.41.07.24-.3-.07-.44-.1.08.07.2.09.28.23l-.13.06c.32.24.16,0,.33,0,.21-.02.2.31.27.39l-.09-.08c.12.29.28.27.43.52,0,.05-.01.11-.03.17-.07-.37-.39-.27-.44-.47.17.49-.29.06-.46,0,.13.16.22.33.22.46.34.15.24.58.56.75.05.16-.15-.09-.08.07.14.28.24.6.43.9.05.17-.02.16-.06.22.12.83.51,1.1.51,2.07l-.09-.13c0,.2,0,.37.09.46-.24.25.16.86-.13,1.17-.09.41.11.45.11.79-.05,0-.14-.12-.18.05-.12,1.07-.3,2.05-.78,3.16-.01-.02,0-.08,0-.11-.32.69-.51,1.48-.96,1.96-.04.12-.22.44-.08.41.1-.12.2-.07.26-.01-.26.55-.31.12-.54.44-.22-.03.07-.26-.05-.36l-.28.48c-.24.2-.39.49-.66.6.1-.06-.06-.12.14-.2-.02.03,0,.02-.01.05.36-.29.12-.24.37-.56-.19.31-.53.65-.8.83.13.05-.16.21-.18.33h-.02c.04.05-.11.19-.15.24l-.16-.08c-.1.09.08.04-.03.13-.15.14-.73.56-.87.41-.21.11-.23.22-.47.31,0-.05.05-.09.05-.11-.47.22-1.08.45-1.57.49-.39.11-.71.23-.96.35.11,0,.43-.04.25.09-.1.09-.28.07-.45.11.03-.08-.44-.04-.1-.13-.1-.16-.73.09-.73-.1-.08.05-.56.01-.75.1-.03-.08.27-.05.27-.1l-.22.02v-.05c-.41-.09-.51.11-.77.11v-.02s-.16,0-.16,0l.22-.12c-.27,0-.43.08-.74.04l-.02-.05h-.19s.05-.01.03-.03c-.21.1-.58-.06-.77-.01-.11-.06-.16-.25-.35-.19l.09-.15c.39.11.11.16.54.24-.12-.15-.39-.29-.7-.42-.3-.14-.64-.29-.92-.39-.48-.12-1.08-.66-1.37-.58l.1-.06c-.21-.18-.43-.33-.62-.53-.58-.38-1.03-.92-1.5-1.19l-.03-.17c-.59-.2-1.26-1.34-1.7-1.5-.1-.31.16.01.23,0-.08-.21-.5-.42-.45-.7.04-.02.18.26.15.12.02-.19-.19-.17-.17-.39-.05.12-.33-.18-.46-.43.01.05.02.05.01.07-.06.07-.12-.13-.17-.24,0,0,.02,0,.04.03-.63-1.33-.98-3.09-.74-4.64l.06.29c-.06-.23.04-.61.07-.74v.03c.2-.38-.07-.49.17-.76v.06c.11-.48.35-.71.44-1.18.2-.32.24-.26.43-.44.1-.19.06-.32.04-.34l-.06.09c-.14.06.04-.24.07-.39-.18.03-.34-.15-.7.19-.12.32-.37.2-.5.58.09.27-.34.48-.27.89-.07-.22-.2.4-.25.05-.14.12-.07.79-.22,1.05-.02-.05-.06-.04-.06-.12.03.41-.13.27-.16.57h.14c.03.12-.06.15-.05.25.02-.08.1-.25.15-.15.03.14.06.26.06.4-.05,0-.07-.1-.08-.18,0,0-.03.32-.09.34-.04-.12-.03-.27-.1-.38-.06.43-.05.03-.17.24.16-.05.05.38.1.61-.07.03-.02-.16-.07-.22-.28.46.06.67.05,1.24-.02,0-.04-.08-.05-.11.07.26-.05.47.06.63,0,.26-.18.07-.1.47.14-.15.05.47.24.45l-.04.32c.16.24.27-.14.42.36.07.48-.3.04-.3.33l.13.09v.25s-.01-.03-.01-.03c.07.13.14.39.09.41-.05,0-.1-.16-.15-.17.15.21.17,1.01.52,1.12.02.15.15.42.06.42.17.06.3.58.47.71-.05,0-.01.2.1.3-.07-.19.03-.11.16-.04.03.19.37.53.31.68.22.17.24.03.36.01.03.19.41.58.22.62-.08-.12-.27-.39-.32-.27.14.25.11.06.28.22-.03,0,.03.18-.04.18.1.09.23.24.34.4-.15-.28.21.07.14-.11l-.28-.14c-.24-.26.02-.12-.04-.24.43.44.47.24.94.57.06.09.16.26.21.3-.14-.12-.22.01-.16.11.31.13.38.44.57.63-.16-.17,0-.17.09-.15.49.27.13.18.28.38.7.49,1.06.96,1.72,1.19l-.22-.28-.16.06c-.17-.21.19-.23.35-.24,0,.06.39.23.21.22l.38.14c-.03-.08-.27-.18-.07-.15.09.11.46.29.19.26.19.09.46.16.45.07.32.13-.1.14-.26.12.25.12.17.21.08.21l.36.14c-.09,0-.11.05-.2.05.22.15.44.09.61.26l.13-.07c.65.3.56.33,1.21.49l-.09-.1c.52-.04.33.22,1.01.29.39,0,.64,0,.6-.14.22-.02.26.06.36.12.18-.05.55-.19.81-.1-.18.04-.33.07-.51.08.04.13.59.04.88.11.2-.05.83-.28,1.16-.42-.17-.1-.12-.24.16-.39-.03.09.42,0,.64.01-.09.1.51.09.07.21-.14-.01-.22-.11-.39-.03.12.06.42.09.74.1-.01.04-.16.13-.32.16.08-.05.02-.07,0-.1Z"/>
      <path class="cls-3" d="m234.16,75.7l.04-.02h-.06s.03.01.02.02Z"/>
      <path class="cls-3" d="m251.99,88.26s.01-.07,0-.08c0,.03,0,.06,0,.08Z"/>
      <path class="cls-3" d="m253.54,81.99s-.02,0-.03.01c0,0,.02,0,.03-.01Z"/>
      <path class="cls-3" d="m233.26,75.29l.06-.1s-.03.05-.06.1Z"/>
    </g>
  </g>
  <g>
    <path class="cls-2" d="m189.27,86.09c-1.85,3.07-.45,6.64-.31,6.99,1.71,4.19,6.97,7.09,11.5,5.31,5.38-2.11,6.85-9.7,3.89-13.58-3.41-4.47-12.27-3.4-15.08,1.28Z"/>
    <g>
      <path class="cls-3" d="m190.08,86.02l.07-.1s-.03.03-.07.1Z"/>
      <path class="cls-3" d="m189.92,86.04h0s0,0,0,0Z"/>
      <path class="cls-3" d="m189.55,96.47s-.09-.07-.12-.07c.06.06.1.08.12.07Z"/>
      <path class="cls-3" d="m197.65,97.91s0,.02,0,.03c.01,0,.01-.02,0-.03Z"/>
      <path class="cls-3" d="m191.01,84.89l-.05.03s.05,0,.05-.03Z"/>
      <path class="cls-3" d="m188.29,94.46s-.02,0-.04,0c.02,0,.03,0,.04,0Z"/>
      <path class="cls-3" d="m195.29,83.38s.03-.02.05-.02c-.02,0-.04.01-.05.02Z"/>
      <path class="cls-3" d="m199.56,100.1s.05-.04.05-.05c-.04.01-.06.03-.05.05Z"/>
      <path class="cls-3" d="m199.52,99.78c-.44.19.14.16.09.27.12-.05.39-.09.25-.14.3.13.69-.33,1-.27,0-.02-.17-.03,0-.14.25-.13.26-.04.38-.05.05-.09.42-.31.39-.26.14-.12-.26-.09-.07-.28.09-.19.35-.19.5-.34.25-.06-.16.2-.24.27.19-.12.37-.28.55-.42.21-.05,0,.16-.18.26.28-.08.53-.34.53-.48.16-.07.21-.15.36-.22-.09.15.05.31-.15.48-.36.23.04-.2-.27-.03l.04.11c-.17.03-.22.17-.36.27-.09.03,0-.05.04-.09-.25.18-.48.25-.63.45.43-.06.85-.57,1.08-.55.21-.19.38-.41.54-.62-.04-.04-.3.07-.18-.13.15.04.37-.06.62-.25-.17-.02.25-.44.06-.41-.04.15-.17.12-.2.13.19-.22-.07-.12.03-.24.37-.36.05.08.44-.27-.02.12-.1.43-.26.69.06.03.19-.22.33-.27-.17.08-.02-.18-.14-.1.25-.35.45-.82.69-1.25.13.19-.36.79-.07.82.13-.22.04-.29.17-.44.2-.07.37-.47.53-.77l-.13.1c.02-.14.17-.33.25-.45v.05s.04-.15.04-.15c.02-.02.02-.02.03-.01.03-.17.27-.51.35-.81-.1-.04-.12.28-.19.41-.04.03-.22.26-.22.1.18-.34.14-.64.32-1.02l-.08.11c-.02-.15.1-.3.15-.5.18-.33.06.31.18.11.05.17-.16.37-.04.45l.23-.17c0-.21.17-.38.2-.52l-.11.12c-.1-.06.02-.17.06-.23l-.19.05c-.09.19.01.39-.14.5.08-.38-.09-.34.04-.77.07,0,0,.09.03.15.09-.14,0-.33.13-.55,0,.15,0,.39.13.23l-.08-.16c.05-.11.08-.05.1-.1.06-.16-.13,0-.05-.24.03-.03.08-.11.1-.07.06-.29-.01-.15-.02-.44-.05.25-.24.22-.21-.04.1-.35,0-.61.19-.84l-.06-.17c.11.11.06-.22.1-.34.13-.03-.06.54.15.56.05-.24.1-.13.15-.04,0-.27-.14-.11-.21-.23.05,0,.06-.44.16-.28.01-.22-.12-.27-.1-.43.05.03.12.06.19.04-.04-.02.01-.23.02-.27-.02.04-.11-.08-.07.12-.1-.05,0-.46-.09-.45.13-.02,0-.42.02-.63-.27.04.14.37-.08.46-.13-.26-.06-.91-.3-1.32-.02-.38.1-.02.19-.12.12.34.06.44.13.73.04-.34-.14-.88-.26-1.1-.08-.35.16-.47-.04-.88-.07.09-.09.08-.08.23-.07-.1-.08-.25-.12-.37-.08-.05,0,.21-.1.06,0-.07-.04-.22.02-.21l.02.03c-.23-.36.07-.37-.24-.64-.03.05.06.1.07.19-.03.09-.22-.07-.32-.21.07,0-.05-.14-.09-.25.06-.12.15.25.24.28l-.13-.31.02.07c-.08-.09-.17-.18-.26-.26.16.19-.04.16-.11.08-.12-.21-.23-.43-.12-.47-.12.04-.26-.23-.43-.37.13.2-.06.08-.13.06l-.15-.33c.28.26.02-.13.14-.11.16,0,.27.22.4.38-.1-.43-.46-.34-.61-.66.04-.04.1-.06.2.06-.02-.07-.27-.17-.41-.36.02.07.05.22-.16.11l-.15-.29c-.26-.24-.18.03-.44-.09l.09.19c-.09.07-.29-.23-.37-.14.13.11.26.09.38.23-.02.14-.22-.09-.34-.1-.26-.27-.21-.21-.39-.44.09-.17.53.03.62-.2-.35-.17-.86-.39-1.04-.58-.34-.08-.37.07-.37.19-.13-.03-.19-.07-.26-.13h.17c-.41-.08-.63-.15-1.03-.25-.24-.03-.18.1-.15.2l-.25-.05.03.03c-.09.1-.29,0-.44-.04.01-.05.11-.04.11-.07-.13-.09-.36-.11-.48-.07,0-.05.13-.15.3-.09.02.01,0,.03.02.05h.3c-.35-.03-.53-.17-.5-.3-.36.01.26.17-.16.16-.25-.16-.51-.19-.74-.22-.23-.01-.42-.03-.57-.21-.26.07-.57.15-.96.19,0,.11-.26.05-.22.18.37.11.69-.24.99-.02.17-.04.12-.13.19-.19.15,0,.29.02.31.08-.35.05-.11.25-.54.23.05.09.4.08.55.11-.05.05,0,.11.09.15-.12.08-.36.14-.49.21.05-.05-.03-.08,0-.11l-.44.13c-.13-.07-.17-.15-.1-.2-.24-.02-.64.14-.65-.02-.31.04.1.09.13.13h-.03s.33-.02.33-.02c.04.18-.37-.03-.42.15-.03.34-.46-.1-.69,0,.08-.09.16-.19.24-.27-.08.02-.15.05-.23.08.12-.11.1-.28.31-.38-.33,0-.8.03-1.01.09-.1-.07-.15-.14-.12-.22-.31.19-.53.03-.82.09-.28.16.33.04.14.21-.1-.04-.26.05-.33.09.08-.07.42-.06.64-.08-.16.04-.12.15-.15.2l.27-.04c.01.15-.32.09-.43.19.05-.15,0-.14.05-.29-.22.11-.57.18-.78.17-.13,0,.08-.1.13-.15-.08-.08-.21.13-.29.03.01-.09.14-.06.21-.11l-.69.2s.15-.12.26-.14c-.23.01-.37.1-.54.35-.25.03-.53.1-.49-.01-.09.08,0,.09.02.14-.31.12-.26.3-.44.39l.18.02c-.33.04,0,.18-.28.22,0-.11-.08-.21-.17-.28,0,.11-.19.13-.29.19.12.05-.18.22.04.2-.19.21-.38.17-.48.38.12-.04-.14.22,0,.22-.2.17-.42.19-.43.05.08-.05.22-.11.16-.17l-.37.32c-.13.04-.27.12-.36.04-.04.19-.41.27-.38.47.05-.2.24-.19.29-.23l-.04.07s.02-.02.03-.02v.3c.19-.09-.08-.12.13-.33.3-.03-.19.61.07.51.18-.1.03-.21.11-.38-.01,0-.03.02-.04.03l.25-.31c.06.04,0,.15,0,.15.38-.28.47-.28.91-.52-.04,0-.24-.12-.06-.26.11-.13.19-.04.31-.1-.06.06-.06.19-.19.19l.08.11c-.22.34,0,.32-.35.66.04.1-.19.35-.42.49h.16c-.08.29-.15-.1-.28.25-.22-.04-.56.01-.53-.24-.21.15-.2.28-.36.45-.21,0-.08-.16-.21-.24-.11.14-.17.36-.03.31l-.24.23s.04-.11.07-.14c-.1.08-.18.33-.18.41,0-.03.04-.11.08-.12-.04.13-.12.36-.1.4.05-.2.2-.12.23-.34.02.04.07.11,0,.18.17-.08.25-.22.37-.22-.14.06-.1.2-.1.23.09-.08.21-.29.22-.38.13.08.28-.37.31-.14-.03-.06.09-.19.18-.22.05.06-.08.25-.08.37-.22.39-.1-.09-.2-.05l-.19.29s.02.18.14,0c.02.15-.04.36-.2.46.02.06.08-.05.11-.08.02.06.05.32.23.13-.05.06,0-.15-.12-.07.05-.1.27-.29.28-.14.04-.12.14-.36.21-.44.08.03-.04.09-.05.15l.23-.3-.14.02c.24-.15.2-.44.35-.64.06.12-.07.26-.12.42.21.02,0-.14.19-.28.04,0,.07.02.08.06l.07-.21c.05-.02.05.02.03.04.17-.32-.13-.14.19-.47-.26.12-.12.22-.31.35-.17,0,.09-.3.11-.39.2-.11.32.02.5-.21-.13.16.05.1-.16.27-.08.15.1,0,.17.04.05-.06-.12-.09.06-.18v.02s.21-.3.21-.3c.3-.11.54-.51.82-.45l-.11-.11c.18-.1.44-.23.56-.31,0,.09-.12.16-.24.24.33-.15.61-.31.81-.51-.21-.04-.23-.02-.42-.03.16-.27.31.02.58-.18.05.13-.05.14.06.25.09-.14.3-.18.42-.29.11.12,0,.24-.29.35-.26-.03-.44.25-.66.21l.14.04c-.21.11-.35.14-.5.29v-.02s-.03.17-.03.17l.1-.05c-.04.1-.18.31-.23.34.28-.15.21-.37.31-.55.28-.11.48.09.62-.09.04.06.21.07.11.17-.14.09-.28.05-.26.14.16-.06.12.02.35-.09,0-.13.15-.31.31-.46.18-.11.43-.17.59-.17-.19.06-.36.22-.28.3.08-.15.4,0,.3-.15.22-.05.61-.13.66.03-.2.08-.42.04-.59.12.05,0,.11.02.08.06l-.26.05c.21.02.18.08.43,0-.02,0-.05-.02-.03-.04.06-.02.14-.04.2-.05l.03.13c.18-.09.57.03.9-.12l-.03.03c.28,0,.28-.26.58-.31-.09.07-.04.12-.02.19.15-.08.23.03.38.06-.18-.07.12-.15-.01-.19-.01-.15.31-.14.47-.11.09.18-.5.07-.26.27.16.02.2-.07.09-.11.2.03.5.07.63.18.25-.13.33-.02.5-.18-.13-.01-.15.11-.3.02l.19-.1c.23.03.4.17.55.21l-.17.03v-.02c-.06.05-.26-.02-.25.08.16-.1.26.04.47-.02v.02c.35-.04.5.34.78.14-.06-.01-.16-.14-.1-.18.06.08.27.11.24.18h-.08c.18.07.28.12.36.13.08-.06.05-.15.2-.14.29.18-.2.14-.02.3l.32.03.03.1c.2.12.37.2.58.24.21.05.43.09.61.26-.08.12-.37-.06-.49-.1.07.16.32.17.42.35.13.13.31.12.34.04.21.1.07.16.08.2.15-.05.3.2.45.31l-.06.06.27.14c-.04-.06.06-.06.1-.09l.04.07c0-.38-.55-.37-.55-.78.08.05.03-.08.12-.03.05.06.05.08.03.11.08-.01.21.04.09-.08.13-.12.33.16.53.3.04.21-.26-.03-.39-.05.07.05.17.06.23.18l-.12.06c.27.18.15-.01.3-.04.2-.04.16.25.22.31l-.08-.06c.09.24.24.21.36.41-.01.05-.02.09-.04.14-.03-.31-.35-.19-.37-.36.11.4-.28.08-.43.05.11.12.17.25.16.36.3.1.17.46.46.57.03.12-.13-.06-.08.06.11.22.19.47.35.7.04.13-.03.13-.07.18.08.65.45.86.44,1.63l-.08-.1c0,.16,0,.29.08.37-.24.2.16.68-.13.93-.08.33.12.36.13.63-.05,0-.14-.1-.18.03-.08.85-.22,1.64-.59,2.51-.02-.02-.01-.07-.01-.09-.26.55-.37,1.19-.74,1.56-.03.1-.16.36-.03.35.08-.09.18-.04.24.01-.19.46-.28.08-.45.34-.2-.04.04-.22-.08-.32l-.21.4c-.2.15-.3.4-.53.47.09-.05-.07-.12.1-.17-.01.02,0,.02,0,.04.29-.23.08-.2.27-.46-.14.26-.41.53-.62.67.12.06-.12.17-.12.28h-.02s-.08.16-.11.2l-.14-.09c-.08.08.07.05-.01.12-.11.11-.57.46-.7.3-.16.09-.17.19-.36.26,0-.04.03-.08.03-.1-.37.17-.85.36-1.25.37-.3.09-.56.2-.75.31.09,0,.34-.03.2.09-.08.08-.22.06-.35.1.02-.08-.35-.05-.09-.13-.08-.16-.58.08-.58-.11-.06.05-.44.01-.6.1-.03-.08.21-.05.21-.1l-.18.02v-.05c-.32-.08-.41.12-.62.13v-.02s-.13.01-.13.01l.18-.12c-.22,0-.35.1-.6.07v-.05s-.17.01-.17.01c.03,0,.04-.02.03-.04-.17.11-.47-.03-.63.03-.09-.05-.12-.24-.28-.17l.08-.15c.32.08.08.15.43.2-.09-.14-.3-.26-.55-.36-.24-.12-.51-.23-.73-.31-.39-.08-.85-.53-1.11-.43l.09-.06c-.16-.15-.33-.27-.48-.44-.46-.3-.82-.73-1.21-.93v-.14c-.53-.12-1.03-1.05-1.44-1.14-.06-.26.15,0,.21-.01-.06-.17-.44-.32-.36-.56.04-.02.16.21.13.09.03-.16-.17-.13-.13-.31-.06.1-.3-.12-.42-.32.01.04.01.04,0,.06-.06.06-.11-.1-.15-.18,0,0,.02,0,.04.02-.53-1.06-.82-2.49-.62-3.74l.06.24c-.06-.18.03-.49.06-.59v.03c.2-.3-.08-.4.14-.61v.05c.09-.39.31-.56.37-.94.17-.25.22-.19.38-.33.07-.15.03-.26.01-.28l-.05.07c-.12.04.02-.19.04-.33-.17,0-.34-.16-.65.1-.09.26-.34.14-.44.45.11.23-.3.39-.22.73-.08-.19-.17.32-.24.03-.14.1-.04.65-.18.86-.02-.04-.06-.04-.07-.1.04.34-.12.22-.15.47h.14c.03.1-.06.12-.04.21.02-.07.09-.2.15-.12.03.12.07.21.06.33-.05,0-.07-.09-.09-.14,0,0-.03.26-.09.28-.04-.1-.03-.22-.11-.31-.06.35-.05.03-.16.19.16-.04.05.31.1.5-.07.02-.02-.13-.07-.18-.28.38.06.55.04,1.02-.02,0-.04-.06-.05-.09.06.22-.06.39.05.52,0,.22-.18.07-.12.39.14-.13.04.39.22.36l-.05.27c.15.19.28-.13.4.28.05.39-.29.04-.32.29l.12.07v.21s-.02-.03-.02-.03c.07.1.12.32.07.34-.05,0-.09-.13-.14-.14.14.17.1.86.43.93,0,.13.12.35.03.36.16.04.24.48.39.58-.04,0-.02.17.07.26-.05-.16.04-.1.16-.05.01.16.31.44.23.58.19.13.22,0,.33-.02.01.17.33.48.15.53-.07-.1-.22-.33-.27-.22.11.21.1.05.24.18-.03,0,.01.16-.05.17.09.07.19.19.28.33-.11-.24.19.04.14-.12l-.25-.1c-.2-.21.03-.11-.02-.22.36.36.41.17.81.44.04.08.13.22.16.26-.12-.1-.2.03-.15.11.27.09.3.38.46.54-.13-.15.01-.16.09-.15.41.21.1.16.22.33.58.4.86.82,1.42,1l-.17-.25-.14.07c-.13-.19.18-.23.33-.25,0,.05.32.2.16.19l.32.11c-.02-.07-.22-.15-.05-.14.07.1.38.25.15.24.16.08.39.12.38.04.26.11-.09.14-.23.14.21.1.13.19.05.2l.3.11c-.08,0-.1.05-.18.06.18.13.37.06.51.22l.11-.08c.53.26.46.29,1,.42l-.07-.1c.44-.05.27.21.84.25.33,0,.53-.02.51-.15.19-.03.22.06.3.11.15-.05.46-.19.68-.1-.15.04-.28.07-.42.08.04.13.49.04.73.11.17-.06.69-.27.96-.41-.14-.1-.11-.24.12-.39-.03.09.34.01.53.04-.07.09.43.11.07.21-.12-.02-.19-.12-.33-.05.1.06.36.11.62.13,0,.04-.13.12-.26.15.06-.05.02-.07,0-.1Z"/>
      <path class="cls-3" d="m191.01,84.89l.03-.02h-.05s.02,0,.02.02Z"/>
      <path class="cls-3" d="m205.6,95.1s0-.06,0-.07c0,.03,0,.05,0,.07Z"/>
      <path class="cls-3" d="m206.87,89.92s-.02,0-.03,0c0,0,.02,0,.03,0Z"/>
      <path class="cls-3" d="m190.16,84.43l.05-.08s-.02.05-.05.08Z"/>
    </g>
  </g>
  <g>
    <path class="cls-2" d="m235.97,77.74c-1.83,3.05-.45,6.6-.31,6.94,1.7,4.16,6.93,7.04,11.42,5.28,5.34-2.1,6.81-9.64,3.87-13.49-3.39-4.44-12.19-3.38-14.98,1.27Z"/>
    <g>
      <path class="cls-3" d="m236.77,77.67l.07-.1s-.03.03-.07.1Z"/>
      <path class="cls-3" d="m236.61,77.7h0s0,0,0,0Z"/>
      <path class="cls-3" d="m236.24,88.06s-.09-.07-.12-.07c.06.06.1.08.12.07Z"/>
      <path class="cls-3" d="m244.3,89.48s0,.02,0,.03c.01,0,.01-.02,0-.03Z"/>
      <path class="cls-3" d="m237.7,76.55l-.05.03s.05,0,.05-.03Z"/>
      <path class="cls-3" d="m234.99,86.06s-.02,0-.04,0c.02,0,.03,0,.04,0Z"/>
      <path class="cls-3" d="m241.95,75.05s.03-.02.05-.02c-.02,0-.04.01-.05.02Z"/>
      <path class="cls-3" d="m246.2,91.67s.05-.04.05-.05c-.04.01-.06.03-.05.05Z"/>
      <path class="cls-3" d="m246.16,91.35c-.44.18.14.16.09.27.12-.05.39-.09.25-.14.3.13.69-.33,1-.27,0-.02-.17-.03,0-.14.25-.13.26-.04.38-.05.05-.09.42-.31.39-.26.14-.12-.26-.09-.07-.28.09-.19.35-.19.5-.34.25-.06-.16.2-.24.27.19-.12.36-.28.54-.41.21-.05,0,.16-.18.26.28-.08.53-.34.53-.47.16-.07.21-.15.36-.22-.09.15.05.31-.15.48-.36.23.04-.2-.27-.03l.04.11c-.17.03-.22.17-.36.27-.09.03,0-.05.04-.09-.24.18-.47.25-.62.45.43-.06.84-.57,1.07-.54.2-.18.37-.4.54-.62-.04-.04-.3.07-.18-.13.15.04.37-.06.62-.25-.17-.02.25-.44.06-.41-.04.15-.17.12-.2.12.19-.22-.07-.12.03-.24.37-.36.05.08.43-.27-.02.12-.1.43-.26.69.06.03.19-.22.33-.26-.17.08-.02-.18-.14-.1.25-.35.44-.81.68-1.25.13.18-.35.79-.07.81.13-.22.04-.29.17-.44.2-.07.37-.47.53-.77l-.13.1c.02-.14.17-.33.25-.45v.05s.04-.15.04-.15c.02-.02.02-.02.03-.01.03-.17.27-.51.34-.81-.1-.04-.12.28-.19.41-.04.03-.22.25-.22.1.18-.33.14-.64.31-1.02l-.08.11c-.02-.15.1-.3.14-.49.18-.32.06.3.18.11.05.17-.16.36-.04.45l.23-.17c0-.21.17-.38.2-.52l-.11.12c-.1-.06.02-.17.06-.23l-.19.04c-.09.19.01.38-.14.5.07-.38-.09-.34.04-.77.07,0,0,.09.03.15.09-.14,0-.33.13-.55,0,.15,0,.39.13.23l-.08-.16c.05-.11.08-.05.1-.09.06-.16-.13,0-.05-.24.03-.03.08-.11.1-.07.06-.29-.01-.15-.02-.43-.05.24-.24.21-.21-.04.1-.35,0-.6.19-.83l-.06-.17c.11.11.06-.22.1-.33.13-.03-.06.54.15.56.05-.24.1-.13.15-.04,0-.26-.14-.11-.21-.23.05,0,.06-.44.16-.28.01-.22-.12-.27-.1-.43.05.03.12.06.19.04-.04-.02.01-.23.02-.27-.02.04-.11-.08-.07.12-.1-.05,0-.46-.09-.44.13-.02,0-.42.02-.62-.27.04.14.37-.08.45-.13-.26-.06-.91-.29-1.31-.02-.38.1-.02.19-.11.12.34.06.44.13.73.04-.34-.14-.87-.26-1.09-.08-.35.16-.46-.04-.88-.07.09-.09.08-.08.23-.07-.1-.08-.24-.12-.37-.08-.05,0,.21-.1.06,0-.07-.04-.21.02-.21l.02.03c-.23-.36.07-.37-.24-.64-.03.05.06.09.07.19-.03.09-.22-.07-.32-.21.07,0-.05-.14-.09-.25.06-.12.15.25.24.28l-.13-.3.02.07c-.08-.09-.16-.18-.26-.26.16.19-.05.16-.11.08-.11-.21-.23-.43-.12-.47-.12.05-.26-.23-.43-.36.12.2-.06.08-.13.06l-.15-.33c.27.25.02-.13.14-.11.16,0,.27.22.39.38-.1-.43-.46-.34-.61-.66.04-.04.1-.06.2.06-.02-.07-.27-.17-.41-.36.02.07.05.22-.16.12l-.15-.28c-.26-.24-.18.03-.44-.09l.09.19c-.09.07-.29-.23-.37-.13.13.11.26.09.38.23-.02.14-.22-.09-.34-.1-.26-.27-.21-.2-.39-.43.09-.17.53.03.61-.2-.35-.17-.85-.39-1.04-.58-.34-.08-.37.07-.37.19-.13-.03-.19-.07-.26-.13h.17c-.4-.08-.62-.15-1.03-.25-.24-.03-.18.1-.15.2l-.25-.05.03.03c-.09.1-.28,0-.44-.04.01-.05.11-.04.11-.07-.13-.09-.35-.11-.48-.07,0-.05.13-.15.3-.09.02.01,0,.03.02.05h.3c-.34-.03-.52-.17-.49-.3-.36.01.25.17-.16.16-.25-.16-.51-.19-.73-.22-.23-.01-.42-.03-.56-.21-.26.07-.56.15-.95.19,0,.11-.26.05-.21.18.37.11.69-.24.98-.02.17-.04.12-.13.19-.19.15,0,.29.02.3.08-.35.05-.11.25-.54.23.05.09.4.08.55.11-.05.05,0,.11.09.15-.12.08-.36.14-.48.21.05-.05-.03-.08,0-.11l-.43.13c-.13-.07-.17-.15-.1-.2-.24-.02-.64.14-.65-.02-.31.04.1.09.13.13h-.03s.32-.02.32-.02c.04.18-.37-.03-.41.15-.03.34-.46-.1-.68,0,.08-.09.16-.19.24-.27-.08.02-.15.05-.22.08.12-.11.1-.28.3-.38-.33,0-.8.03-1,.09-.09-.07-.15-.14-.12-.22-.31.19-.53.03-.81.09-.28.16.33.05.14.21-.1-.04-.25.05-.33.09.08-.07.41-.06.63-.08-.16.03-.12.15-.15.2l.27-.04c.01.15-.32.09-.43.19.05-.15,0-.14.05-.29-.22.11-.56.18-.78.17-.13,0,.07-.1.13-.15-.08-.08-.21.13-.29.03.01-.09.14-.06.21-.11l-.68.2s.15-.12.26-.14c-.22.01-.37.1-.54.35-.25.03-.53.1-.49-.01-.09.08,0,.09.02.14-.31.11-.26.3-.44.39l.18.02c-.33.04,0,.18-.27.22,0-.11-.08-.21-.17-.28,0,.11-.19.13-.29.19.12.05-.17.22.04.2-.19.21-.38.17-.48.38.12-.04-.14.22,0,.22-.2.17-.42.18-.43.05.08-.05.22-.11.16-.17l-.37.32c-.13.03-.27.11-.36.04-.04.19-.4.27-.38.46.05-.2.24-.19.29-.23l-.04.07s.02-.02.03-.02v.3c.19-.09-.08-.12.13-.33.3-.03-.19.61.07.51.18-.1.03-.21.11-.38-.01,0-.03.02-.04.03l.25-.3c.06.04,0,.15,0,.15.37-.28.47-.28.9-.52-.04,0-.24-.12-.06-.26.11-.13.19-.04.31-.1-.06.06-.06.19-.19.19l.08.11c-.21.34,0,.32-.35.66.04.1-.19.35-.41.49h.16c-.08.29-.15-.1-.28.25-.22-.04-.56,0-.53-.24-.21.15-.2.28-.36.44-.21,0-.08-.16-.21-.24-.11.13-.17.36-.03.31l-.24.23s.04-.11.07-.14c-.1.08-.18.32-.17.41,0-.03.03-.11.08-.12-.04.13-.12.36-.09.4.05-.2.2-.12.23-.33.02.04.07.11,0,.18.17-.08.25-.22.37-.21-.14.06-.1.2-.1.23.09-.08.21-.29.22-.38.13.08.28-.37.31-.14-.03-.06.09-.19.18-.22.05.06-.08.25-.08.37-.22.39-.1-.09-.2-.05l-.19.29s.02.18.14,0c.02.15-.03.36-.2.45.02.06.08-.05.11-.08.02.06.05.32.23.13-.05.06,0-.15-.12-.07.05-.1.27-.29.28-.14.04-.12.14-.36.21-.44.08.03-.04.09-.05.15l.23-.3-.14.02c.24-.15.2-.44.35-.63.06.12-.07.26-.12.41.21.02,0-.14.19-.27.04,0,.07.02.08.06l.07-.21c.05-.02.05.02.03.04.16-.32-.13-.14.18-.47-.25.11-.12.22-.31.35-.17,0,.09-.3.11-.38.2-.11.32.02.5-.21-.13.16.05.1-.16.27-.08.15.1,0,.17.04.05-.06-.12-.09.06-.18v.02s.21-.3.21-.3c.29-.11.53-.51.81-.45l-.11-.11c.18-.1.44-.22.56-.31,0,.09-.12.15-.23.24.33-.15.61-.31.8-.5-.2-.04-.23-.02-.41-.03.16-.27.31.02.57-.18.05.13-.05.14.06.25.09-.14.3-.18.42-.29.11.12,0,.24-.28.35-.26-.03-.44.25-.66.21l.14.04c-.21.11-.35.14-.5.29v-.02s-.03.17-.03.17l.1-.05c-.04.1-.18.31-.23.34.28-.15.21-.36.3-.54.28-.11.48.09.62-.09.04.06.21.07.11.17-.14.09-.27.04-.26.14.16-.06.12.02.35-.08,0-.13.15-.31.3-.46.18-.11.43-.17.59-.17-.19.06-.35.22-.28.3.08-.15.39,0,.3-.15.22-.05.6-.13.65.03-.2.08-.42.04-.59.12.05,0,.1.02.08.06l-.26.05c.21.02.18.08.43,0-.02,0-.05-.02-.03-.04.06-.02.14-.04.2-.05l.03.13c.18-.09.56.03.89-.12l-.03.03c.27,0,.28-.26.58-.31-.09.07-.04.12-.02.19.15-.08.23.03.38.06-.17-.07.12-.15-.01-.19-.01-.15.3-.14.46-.11.09.18-.49.07-.26.27.15.02.2-.07.09-.11.2.03.5.07.63.18.25-.13.33-.02.5-.18-.13-.01-.15.11-.3.02l.19-.1c.23.03.39.17.54.21l-.17.03v-.02c-.06.05-.26-.02-.25.08.16-.1.26.04.47-.02v.02c.35-.04.5.34.78.14-.06-.01-.15-.14-.1-.17.06.08.27.11.24.18h-.07c.18.07.28.12.35.13.08-.06.05-.15.2-.14.29.18-.2.14-.02.3l.32.03.03.1c.2.12.37.2.58.24.21.05.43.09.61.26-.08.12-.37-.06-.48-.09.07.16.31.16.41.35.12.12.31.11.34.04.21.1.07.16.07.2.15-.06.3.19.45.3l-.06.06.27.14c-.04-.06.06-.06.1-.09l.03.07c0-.37-.55-.36-.55-.77.08.04.03-.08.12-.03.05.06.05.08.03.11.08-.02.21.04.09-.08.13-.12.33.16.53.29.04.21-.26-.03-.39-.04.07.05.17.06.22.18l-.12.06c.27.18.15-.01.3-.04.2-.04.16.25.22.31l-.08-.06c.09.24.24.21.35.4-.01.05-.02.09-.04.14-.03-.31-.35-.19-.37-.36.11.4-.28.08-.43.05.11.12.17.25.16.36.3.09.17.46.46.57.03.12-.13-.06-.08.06.11.22.19.47.35.69.04.13-.03.13-.07.18.08.65.45.85.44,1.61l-.08-.1c0,.16,0,.29.08.36-.24.2.16.68-.13.92-.08.32.12.36.13.63-.05,0-.14-.1-.18.03-.07.85-.21,1.62-.58,2.49-.02-.02-.01-.07-.01-.09-.26.54-.36,1.19-.73,1.55-.03.1-.16.36-.03.35.08-.09.18-.04.24.02-.19.45-.28.08-.45.34-.2-.05.04-.22-.08-.32l-.2.4c-.2.15-.3.4-.53.47.09-.05-.07-.12.1-.17-.01.02,0,.02,0,.04.28-.22.08-.2.27-.46-.14.25-.41.53-.62.66.12.06-.12.17-.12.28h-.02s-.07.16-.11.2l-.14-.09c-.08.08.07.05,0,.12-.11.11-.57.45-.69.3-.16.09-.17.19-.36.26,0-.04.03-.08.03-.1-.37.17-.85.36-1.24.37-.3.09-.56.2-.75.31.09,0,.34-.03.2.09-.08.08-.22.06-.35.1.02-.08-.35-.05-.08-.13-.08-.16-.58.08-.58-.11-.06.05-.44.01-.59.1-.03-.08.21-.05.21-.1l-.17.02v-.05c-.32-.08-.4.12-.61.13v-.02s-.13.01-.13.01l.18-.12c-.22,0-.35.1-.59.07v-.05s-.17.01-.17.01c.03,0,.04-.02.03-.04-.17.11-.47-.03-.62.03-.09-.05-.11-.24-.28-.17l.08-.15c.31.08.08.15.42.2-.09-.14-.3-.26-.54-.36-.24-.11-.51-.23-.72-.31-.39-.08-.84-.53-1.1-.43l.09-.06c-.16-.15-.33-.27-.48-.43-.46-.29-.81-.73-1.2-.93v-.14c-.53-.12-1.03-1.05-1.44-1.13-.06-.25.15,0,.21-.01-.06-.17-.44-.32-.36-.55.04-.02.15.21.13.09.03-.16-.17-.13-.13-.31-.06.1-.3-.12-.41-.32.01.04.01.04,0,.06-.06.06-.11-.1-.15-.18,0,0,.02,0,.04.02-.53-1.05-.82-2.47-.61-3.71l.06.23c-.06-.18.03-.49.06-.59v.03c.2-.3-.08-.39.14-.61v.05c.09-.39.31-.55.37-.93.17-.25.22-.19.38-.33.07-.15.02-.26.01-.28l-.05.07c-.12.04.02-.19.04-.32-.17,0-.34-.16-.65.1-.09.26-.34.14-.44.45.11.23-.3.38-.22.72-.08-.19-.17.32-.24.03-.14.1-.04.65-.18.86-.02-.04-.06-.04-.07-.1.04.34-.12.21-.15.46h.14c.03.1-.06.12-.04.21.02-.07.09-.2.14-.12.03.11.07.21.06.33-.05,0-.07-.09-.09-.14,0,0-.03.26-.09.28-.04-.1-.03-.22-.11-.31-.06.35-.05.03-.16.19.16-.04.05.31.1.5-.07.02-.02-.13-.07-.18-.28.37.06.55.04,1.02-.02,0-.04-.06-.05-.09.06.22-.06.39.05.52,0,.21-.18.07-.12.39.14-.13.04.39.22.36l-.05.27c.15.19.28-.13.4.28.05.39-.29.04-.32.29l.12.07v.21s-.02-.03-.02-.03c.07.1.12.32.07.34-.05,0-.09-.13-.14-.14.14.17.1.85.43.92,0,.13.12.35.03.36.16.04.24.48.39.58-.04,0-.02.17.07.25-.05-.16.04-.1.16-.05.01.16.31.44.23.58.19.13.22,0,.33-.02.01.17.33.48.15.53-.07-.1-.22-.33-.27-.22.11.21.1.05.24.18-.03,0,0,.16-.05.17.09.07.19.19.28.33-.11-.24.19.04.14-.12l-.25-.1c-.2-.21.03-.11-.02-.22.36.36.41.17.8.44.04.08.13.22.16.26-.12-.1-.2.03-.15.11.27.09.3.37.46.54-.13-.15.01-.16.09-.15.41.21.1.15.22.33.58.4.85.82,1.41.99l-.17-.25-.14.07c-.13-.19.18-.23.32-.25,0,.05.31.19.16.19l.32.11c-.02-.07-.22-.15-.05-.14.07.1.37.25.14.24.16.07.38.12.38.04.26.1-.09.14-.23.14.2.1.13.19.05.2l.3.11c-.08,0-.1.05-.18.06.18.13.37.06.5.22l.11-.08c.53.26.46.29,1,.42l-.07-.1c.44-.05.27.21.83.25.32,0,.53-.02.5-.15.18-.03.22.06.29.11.15-.05.46-.19.67-.1-.15.04-.27.07-.42.08.03.13.49.04.72.11.17-.06.69-.27.96-.41-.14-.1-.11-.24.12-.39-.03.09.34.02.53.04-.07.09.43.11.07.21-.12-.02-.19-.12-.32-.05.1.06.36.11.62.13,0,.04-.13.12-.26.15.06-.05.02-.07,0-.1Z"/>
      <path class="cls-3" d="m237.7,76.55l.03-.02h-.05s.02,0,.02.02Z"/>
      <path class="cls-3" d="m252.21,86.7s0-.06,0-.07c0,.03,0,.05,0,.07Z"/>
      <path class="cls-3" d="m253.46,81.54s-.02,0-.03,0c0,0,.02,0,.03,0Z"/>
      <path class="cls-3" d="m236.86,76.09l.04-.08s-.02.05-.04.08Z"/>
    </g>
  </g>
  <circle class="cls-1" cx="200.8" cy="88.81" r="3.08"/>
  <circle class="cls-1" cx="247.45" cy="80.33" r="3.08"/>
  <g>
    <path class="cls-3" d="m186.3,85.24l.09-.13s-.04.04-.09.13Z"/>
    <path class="cls-3" d="m186.12,85.29h0s0,0,0,0Z"/>
    <path class="cls-3" d="m186,97.99c-.05-.05-.1-.08-.14-.1.07.07.11.09.14.1Z"/>
    <path class="cls-3" d="m195.74,100.2s0,.02,0,.03c.01,0,.02-.02,0-.03Z"/>
    <path class="cls-3" d="m187.48,83.83l-.06.04s.06-.01.06-.04Z"/>
    <path class="cls-3" d="m184.46,95.59s-.03,0-.04,0c.02,0,.03,0,.04,0Z"/>
    <path class="cls-3" d="m192.77,81.82s.04-.02.06-.03c-.02,0-.05.01-.06.03Z"/>
    <path class="cls-3" d="m198.03,102.35s.06-.04.06-.05c-.04.02-.07.03-.06.05Z"/>
    <path class="cls-3" d="m197.99,102.03c-.54.2.16.16.1.27.15-.06.47-.11.3-.15.35.11.84-.38,1.2-.33,0-.02-.2-.02,0-.14.3-.15.31-.06.45-.08.07-.1.51-.35.48-.3.18-.14-.3-.07-.06-.28.12-.21.43-.22.61-.4.29-.08-.2.23-.3.31.24-.14.45-.33.67-.49.24-.08-.02.17-.23.29.32-.11.64-.41.66-.56.19-.09.25-.19.43-.28-.11.17.03.33-.21.53-.43.27.07-.22-.31,0l.03.11c-.19.05-.27.2-.43.32-.11.04,0-.05.05-.1-.29.21-.57.31-.76.53.51-.09,1.02-.68,1.28-.67.25-.21.46-.47.67-.72-.04-.04-.34.11-.19-.12.17.03.42-.11.72-.34-.19,0,.32-.51.11-.46-.06.18-.2.16-.23.16.23-.26-.06-.13.06-.27.44-.45.05.08.51-.34-.04.14-.16.49-.35.8.06.03.23-.27.39-.33-.2.1,0-.2-.14-.1.15-.21.29-.45.44-.7.14-.25.27-.53.43-.78.12.2-.46.94-.15.94.16-.27.07-.33.22-.52.22-.1.45-.57.64-.93l-.14.13c.03-.16.2-.39.3-.55v.06s.05-.18.05-.18c.02-.02.03-.02.03-.02.04-.2.33-.61.43-.98-.1-.04-.15.34-.23.5-.04.03-.25.32-.24.14.22-.41.2-.76.41-1.23l-.09.14c-.01-.18.13-.36.19-.6.2-.4.04.36.18.12.04.2-.19.45-.08.54l.25-.21c0-.25.2-.47.23-.63l-.12.15c-.1-.07.03-.2.07-.28l-.19.07c-.11.24-.01.46-.17.6.1-.45-.07-.4.09-.92.07,0,0,.11.02.18.1-.17.03-.39.17-.67-.01.18-.03.47.12.27l-.07-.19c.06-.13.09-.06.11-.12.06-.19-.14.01-.04-.29.03-.04.08-.14.1-.09.08-.36,0-.18,0-.53-.06.3-.25.27-.21-.04.12-.43.02-.74.21-1.02l-.06-.2c.1.14.07-.27.1-.41.14-.04-.07.66.14.68.05-.29.1-.16.15-.06.01-.32-.14-.13-.21-.28.05,0,.07-.54.17-.34.01-.27-.12-.32-.1-.52.05.03.12.07.19.05-.04-.02.01-.28.02-.33-.02.05-.11-.09-.07.14-.1-.06,0-.56-.09-.54.13-.03-.01-.51.01-.76-.27.05.15.45-.07.55-.14-.32-.07-1.11-.33-1.6-.04-.46.1-.02.19-.13.13.41.08.53.16.89.04-.41-.17-1.06-.3-1.33-.09-.43.14-.55-.09-1.05-.06.1-.08.09-.06.26-.08-.13-.1-.3-.15-.45-.08-.07.01.25-.1.06-.01-.08-.06-.26.01-.25l.02.03c-.27-.45.05-.43-.3-.77-.02.05.07.12.09.23-.03.1-.23-.1-.35-.27.07,0-.07-.17-.11-.3.05-.14.18.31.27.34l-.16-.37.02.08c-.09-.12-.19-.23-.3-.33.19.24-.03.18-.11.08-.14-.26-.29-.52-.18-.55-.12.04-.29-.29-.5-.46.16.24-.05.09-.14.05l-.2-.39c.33.31.01-.14.14-.11.18.02.32.27.47.46-.16-.49-.54-.42-.74-.8.04-.04.11-.05.22.09-.03-.07-.32-.22-.49-.44.03.07.08.25-.16.11l-.2-.32c-.31-.29-.2.02-.51-.15l.12.21c-.1.07-.36-.28-.44-.19.16.13.31.13.46.29-.01.15-.26-.12-.39-.15-.32-.32-.26-.24-.5-.5.09-.17.62.08.69-.16-.42-.21-1.02-.49-1.25-.7-.4-.11-.43.05-.42.17-.16-.04-.23-.09-.32-.16h.2c-.49-.1-.75-.2-1.25-.31-.29-.04-.21.1-.17.2l-.3-.06.04.04c-.1.1-.35,0-.54-.07.01-.05.13-.03.13-.07-.16-.1-.44-.13-.59-.1,0-.05.15-.15.36-.08.02.02,0,.03.02.05l.37.03c-.42-.06-.65-.2-.61-.33-.43,0,.32.18-.19.15-.31-.17-.63-.2-.9-.24-.28-.01-.52-.03-.69-.22-.32.07-.69.14-1.17.19,0,.11-.32.06-.27.18.45.11.85-.24,1.21-.02.21-.04.14-.13.24-.18.18,0,.36.02.37.09-.43.04-.13.25-.66.23.06.09.49.08.68.11-.06.05,0,.11.11.15-.14.08-.44.14-.6.2.06-.05-.04-.08,0-.11l-.54.12c-.16-.07-.21-.15-.12-.21-.3-.02-.79.15-.8-.01-.38.04.13.09.16.13h-.03s.4-.02.4-.02c.05.18-.46-.02-.52.16-.04.35-.57-.1-.85.01.1-.09.2-.2.3-.28-.09.02-.19.06-.28.09.15-.12.14-.28.39-.39-.4.01-.98.05-1.24.12-.11-.07-.17-.14-.14-.22-.38.2-.64.06-1,.13-.35.18.4.03.16.21-.12-.03-.31.06-.4.11.1-.07.51-.09.78-.11-.2.04-.15.15-.19.21l.33-.06c0,.15-.4.11-.53.22.07-.15.01-.14.08-.29-.27.13-.7.21-.96.22-.15,0,.1-.11.17-.16-.09-.08-.27.14-.35.05.02-.09.17-.07.26-.12l-.84.25s.18-.14.32-.16c-.27.03-.45.12-.68.39-.3.05-.64.15-.58.03-.11.09,0,.09.01.14-.38.15-.34.33-.55.44h.21c-.39.08,0,.19-.35.27,0-.11-.07-.21-.18-.28,0,.12-.23.15-.36.23.13.04-.23.25.03.21-.25.25-.46.21-.6.45.15-.06-.18.25-.03.23-.25.21-.5.25-.5.11.09-.06.26-.14.2-.2l-.46.39c-.15.05-.32.15-.41.08-.07.21-.48.34-.48.56.07-.22.28-.24.35-.29l-.05.08s.02-.02.04-.03l-.04.33c.23-.12-.06-.13.19-.38.34-.07-.28.7.02.56.22-.13.05-.24.16-.44-.01.01-.03.02-.04.03l.32-.36c.06.04-.02.17-.02.17.46-.35.56-.36,1.1-.66-.05,0-.27-.1-.05-.27.15-.15.23-.06.38-.13-.07.07-.09.21-.24.22l.08.11c-.29.39-.04.34-.48.75.04.1-.26.41-.54.58l.18-.03c-.13.34-.16-.09-.36.32-.24,0-.63.08-.57-.2-.25.2-.26.34-.45.54-.24.03-.06-.17-.2-.24-.14.16-.22.44-.07.36l-.28.29s.05-.13.09-.17c-.12.11-.23.4-.23.5.01-.03.05-.13.1-.15-.06.16-.17.44-.15.47.07-.23.23-.16.29-.41.02.04.06.12-.03.21.19-.12.3-.29.43-.29-.16.09-.13.24-.14.28.11-.1.26-.36.28-.47.13.08.36-.46.36-.2-.02-.06.12-.22.23-.28.05.06-.12.29-.14.43-.3.48-.1-.09-.22-.03-.09.12-.16.24-.25.36.04-.02,0,.21.15-.02,0,.17-.08.43-.28.56.01.07.1-.07.13-.1.01.07.01.38.23.12-.06.07.03-.18-.12-.07.06-.12.33-.38.33-.2.06-.15.2-.44.29-.55.09.02-.06.11-.08.18l.3-.37-.16.04c.3-.2.29-.54.48-.77.05.12-.12.29-.19.48.24,0,.01-.16.26-.34.05,0,.08.01.09.05l.11-.24c.07-.03.05.02.03.04.23-.37-.13-.14.27-.54-.31.16-.17.25-.4.42-.19.03.15-.34.18-.44.25-.14.37-.02.61-.29-.17.19.05.1-.22.31-.11.18.12-.01.19.02.06-.07-.13-.09.1-.2v.02s.28-.34.28-.34c.19-.07.36-.22.52-.36.17-.12.34-.22.5-.2l-.12-.1c.22-.12.55-.28.7-.38,0,.09-.16.17-.31.28.41-.19.77-.37,1.02-.59-.25-.02-.27,0-.5,0,.22-.29.38,0,.71-.22.05.13-.07.15.06.25.12-.15.38-.21.54-.33.13.12-.01.24-.37.38-.32-.01-.56.29-.82.26l.17.03c-.26.13-.44.17-.63.34v-.02s-.05.18-.05.18l.12-.06c-.05.11-.25.34-.32.38.36-.19.29-.4.42-.6.35-.14.58.06.77-.14.04.06.26.05.12.16-.18.1-.34.07-.33.16.2-.07.14,0,.44-.12.02-.13.21-.34.41-.5.22-.12.54-.2.74-.21-.24.07-.45.24-.37.32.11-.16.49-.02.38-.17.28-.07.76-.16.81,0-.26.08-.53.06-.74.15.06-.01.13.01.1.05l-.33.06c.26.01.22.07.53-.02-.02,0-.07-.02-.04-.04.08-.02.18-.05.26-.06l.04.13c.23-.1.71,0,1.13-.16l-.04.03c.35,0,.36-.27.74-.32-.11.07-.05.13-.03.19.19-.08.29.03.48.06-.22-.07.15-.15-.01-.19-.01-.15.39-.14.59-.11.11.19-.63.07-.33.26.2.03.25-.07.11-.11.25.03.63.07.8.19.31-.13.42-.01.63-.16-.16-.02-.18.11-.37,0l.23-.1c.29.04.5.18.7.23l-.22.03v-.02c-.07.04-.33-.03-.32.07.2-.09.33.05.59,0v.02c.44-.03.65.38.99.19-.08-.02-.2-.15-.14-.19.08.08.34.13.31.2h-.09c.24.08.36.14.45.16.09-.06.05-.15.23-.13.38.22-.24.13,0,.31l.4.06.05.11c.26.14.48.26.74.33.26.08.53.15.76.36-.08.12-.44-.12-.59-.17.11.18.4.22.54.45.17.16.38.17.41.09.26.14.11.19.12.23.16-.04.37.27.55.42l-.06.06.33.2c-.06-.07.06-.06.1-.09l.05.08c-.05-.44-.67-.5-.72-.97.1.06.03-.09.13-.02.06.08.06.1.05.13.09,0,.24.07.1-.08.13-.12.39.23.63.41.07.24-.3-.07-.44-.1.08.07.2.09.28.23l-.13.06c.32.24.16,0,.33,0,.21-.02.2.31.27.39l-.09-.08c.12.29.28.27.43.52,0,.05-.01.11-.03.17-.07-.37-.39-.27-.44-.47.17.49-.29.06-.46,0,.13.16.22.33.22.46.34.15.24.58.56.75.05.16-.15-.09-.08.07.14.28.24.6.43.9.05.17-.02.16-.06.22.12.83.51,1.1.51,2.07l-.09-.13c0,.2,0,.37.09.46-.24.25.16.86-.13,1.17-.09.41.11.45.11.79-.05,0-.14-.12-.18.05-.12,1.07-.3,2.05-.78,3.16-.01-.02,0-.08,0-.11-.32.69-.51,1.48-.96,1.96-.04.12-.22.44-.08.41.1-.12.2-.07.26-.01-.26.55-.31.12-.54.44-.22-.03.07-.26-.05-.36l-.28.48c-.24.2-.39.49-.66.6.1-.06-.06-.12.14-.2-.02.03,0,.02-.01.05.36-.29.12-.24.37-.56-.19.31-.53.65-.8.83.13.05-.16.21-.18.33h-.02c.04.05-.11.19-.15.24l-.16-.08c-.1.09.08.04-.03.13-.15.14-.73.56-.87.41-.21.11-.23.22-.47.31,0-.05.05-.09.05-.11-.47.22-1.08.45-1.57.49-.39.11-.71.23-.96.35.11,0,.43-.04.25.09-.1.09-.28.07-.45.11.03-.08-.44-.04-.1-.13-.1-.16-.73.09-.73-.1-.08.05-.56.01-.75.1-.03-.08.27-.05.27-.1l-.22.02v-.05c-.41-.09-.51.11-.77.11v-.02s-.16,0-.16,0l.22-.12c-.27,0-.43.08-.74.04l-.02-.05h-.19s.05-.01.03-.03c-.21.1-.58-.06-.77-.01-.11-.06-.16-.25-.35-.19l.09-.15c.39.11.11.16.54.24-.12-.15-.39-.29-.7-.42-.3-.14-.64-.29-.92-.39-.48-.12-1.08-.66-1.37-.58l.1-.06c-.21-.18-.43-.33-.62-.53-.58-.38-1.03-.92-1.5-1.19l-.03-.17c-.59-.2-1.26-1.34-1.7-1.5-.1-.31.16.01.23,0-.08-.21-.5-.42-.45-.7.04-.02.18.26.15.12.02-.19-.19-.17-.17-.39-.05.12-.33-.18-.46-.43.01.05.02.05.01.07-.06.07-.12-.13-.17-.24,0,0,.02,0,.04.03-.63-1.33-.98-3.09-.74-4.64l.06.29c-.06-.23.04-.61.07-.74v.03c.2-.38-.07-.49.17-.76v.06c.11-.48.35-.71.44-1.18.2-.32.24-.26.43-.44.1-.19.06-.32.04-.34l-.06.09c-.14.06.04-.24.07-.39-.18.03-.34-.15-.7.19-.12.32-.37.2-.5.58.09.27-.34.48-.27.89-.07-.22-.2.4-.25.05-.14.12-.07.79-.22,1.05-.02-.05-.06-.04-.06-.12.03.41-.13.27-.16.57h.14c.03.12-.06.15-.05.25.02-.08.1-.25.15-.15.03.14.06.26.06.4-.05,0-.07-.1-.08-.18,0,0-.03.32-.09.34-.04-.12-.03-.27-.1-.38-.06.43-.05.03-.17.24.16-.05.05.38.1.61-.07.03-.02-.16-.07-.22-.28.46.06.67.05,1.24-.02,0-.04-.08-.05-.11.07.26-.05.47.06.63,0,.26-.18.07-.1.47.14-.15.05.47.24.45l-.04.32c.16.24.27-.14.42.36.07.48-.3.04-.3.33l.13.09v.25s-.01-.03-.01-.03c.07.13.14.39.09.41-.05,0-.1-.16-.15-.17.15.21.17,1.01.52,1.12.02.15.15.42.06.42.17.06.3.58.47.71-.05,0-.01.2.1.3-.07-.19.03-.11.16-.04.03.19.37.53.31.68.22.17.24.03.36.01.03.19.41.58.22.62-.08-.12-.27-.39-.32-.27.14.25.11.06.28.22-.03,0,.03.18-.04.18.1.09.23.24.34.4-.15-.28.21.07.14-.11l-.28-.14c-.24-.26.02-.12-.04-.24.43.44.47.24.94.57.06.09.16.26.21.3-.14-.12-.22.01-.16.11.31.13.38.44.57.63-.16-.17,0-.17.09-.15.49.27.13.18.28.38.7.49,1.06.96,1.72,1.19l-.22-.28-.16.06c-.17-.21.19-.23.35-.24,0,.06.39.23.21.22l.38.14c-.03-.08-.27-.18-.07-.15.09.11.46.29.19.26.19.09.46.16.45.07.32.13-.1.14-.26.12.25.12.17.21.08.21l.36.14c-.09,0-.11.05-.2.05.22.15.44.09.61.26l.13-.07c.65.3.56.33,1.21.49l-.09-.1c.52-.04.33.22,1.01.29.39,0,.64,0,.6-.14.22-.02.26.06.36.12.18-.05.55-.19.81-.1-.18.04-.33.07-.51.08.04.13.59.04.88.11.2-.05.83-.28,1.16-.42-.17-.1-.12-.24.16-.39-.03.09.42,0,.64.01-.09.1.51.09.07.21-.14-.01-.22-.11-.39-.03.12.06.42.09.74.1-.01.04-.16.13-.32.16.08-.05.02-.07,0-.1Z"/>
    <path class="cls-3" d="m187.48,83.83l.04-.02h-.06s.03.01.02.02Z"/>
    <path class="cls-3" d="m205.31,96.39s.01-.07,0-.08c0,.03,0,.06,0,.08Z"/>
    <path class="cls-3" d="m206.86,90.12s-.02,0-.03.01c0,0,.02,0,.03-.01Z"/>
    <path class="cls-3" d="m186.58,83.42l.06-.1s-.03.05-.06.1Z"/>
  </g>
  <g>
    <path class="cls-2" d="m223.56,93.09c-.74,5.14-1.22,10.31-1.44,15.5-.04.89-.06,1.81.27,2.63.42,1.03,1.36,1.76,2.34,2.28,4.16,2.22,9.19,1.41,13.84.69,10.68-1.64,21.48-2.49,32.29-2.53.05-1.02-.83-1.81-1.65-2.41-12.55-9.25-28.24-12.78-43.43-16.08"/>
    <g>
      <path class="cls-3" d="m226.75,94.02l.29.06s-.1-.03-.29-.06Z"/>
      <path class="cls-3" d="m226.52,93.85h-.02s.01,0,.02,0Z"/>
      <path class="cls-3" d="m224.64,114.93c-.11-.05-.21-.08-.28-.09.16.07.24.09.28.09Z"/>
      <path class="cls-3" d="m242.3,112.63s0,.02,0,.03c.02-.01.03-.02,0-.03Z"/>
      <path class="cls-3" d="m230.15,94.71l-.13-.04s.09.05.13.04Z"/>
      <path class="cls-3" d="m221.03,110.84s-.03-.03-.04-.04c.02.02.03.03.04.04Z"/>
      <path class="cls-3" d="m240.39,97.75l.12.02s-.09-.02-.12-.02Z"/>
      <path class="cls-3" d="m246.09,114.57c.06-.02.09-.04.11-.05-.07.02-.12.03-.11.05Z"/>
      <path class="cls-3" d="m246.11,114.24c-.87.2.21.16.09.28.23-.05.73-.1.49-.14.48.15,1.38-.27,1.9-.16.02-.02-.28-.05.06-.14.51-.07.49.02.7.04.15-.07.93-.19.85-.16.34-.08-.39-.16.09-.29.31-.17.77-.1,1.15-.17.47.05-.45.11-.64.17l1.3-.18c.39.03-.16.15-.55.17.53.04,1.19-.1,1.33-.22.33,0,.5-.04.81-.02-.3.09-.27.28-.74.35-.79.06.27-.17-.4-.14l-.05.12c-.29-.04-.51.07-.82.1-.17-.01.03-.04.15-.07-.56.06-1,.04-1.41.21.76.03,1.88-.21,2.21-.11l1.48-.28c0-.05-.53-.09-.11-.21.18.12.63.14,1.21.12-.22-.13.91-.2.61-.29-.26.09-.41-.02-.45-.03.56-.05.07-.14.37-.17,1.02-.04-.03.1.97.07-.21.08-.74.27-1.29.37.04.06.55-.05.79,0-.33-.05.22-.15-.05-.17.8-.12,1.74-.33,2.71-.42-.14.22-1.64.27-1.32.5.48-.06.47-.17.86-.18.33.11,1.13-.05,1.79-.09l-.29-.05c.25-.07.71-.05,1-.05l-.07.03.28-.05s.06,0,.06.02c.31-.08,1.12-.05,1.72-.12,0-.11-.6.02-.89.02-.08-.02-.64-.04-.37-.13.75-.04,1.26-.19,2.11-.21l-.27-.02c.27-.08.63-.06,1.04-.08.74.05-.53.17-.09.21-.28.1-.79.02-.86.15l.47.13c.38-.1.81.01,1.08-.01l-.29-.06c.05-.12.33-.04.46-.02l-.2-.16c-.42-.02-.71.14-1.02.06.75-.08.57-.21,1.48-.24.04.06-.17.03-.27.08.31.04.63-.11,1.13-.07-.29.05-.75.13-.38.21l.27-.13c.23.01.14.07.23.07.33.02-.08-.13.44-.11.08.02.25.05.18.08.6,0,.29-.05.84-.12-.5,0-.52-.18,0-.21.22,0,.42,0,.61-.01.22-.01.46,0,.61-.04.33-.05.63-.07.98-.05l.33-.11c-.16.12.59-.05.88-.07.21.06-1.32.18-1.18.35.62-.09.41,0,.25.09.66-.14.14-.16.36-.26.04.04,1.12-.16.84-.04.03-.01.08,0,.09-.03v-.1c0-.06-.01-.12-.02-.17-.02-.1-.03-.19-.05-.27-.04-.16-.08-.29-.1-.48.07.07.15.16.22.14-.04-.06-.11-.57-.16-.67,0,.09-.19-.2.01.27-.07-.07-.16-.34-.3-.59-.13-.25-.3-.48-.34-.46.05-.03-.12-.28-.4-.56-.28-.28-.68-.58-.93-.79-.06.12.19.27.46.46.27.18.55.41.5.52-.16-.13-.37-.32-.62-.51-.25-.2-.58-.43-.75-.54-.42-.28-.87-.59-1.26-.79-.6-.48.06-.09-.01-.26.6.37.7.54,1.23.85-.52-.42-1.44-1.03-1.89-1.24-.62-.38-.53-.66-1.32-1.08.05.14.03.15.24.32-.22-.1-.43-.27-.65-.41-.16-.03.3.27-.03.12-.11-.09-.35-.25-.27-.28l.05.02c-.76-.38-.41-.51-1.12-.72.03.07.19.1.33.21.08.13-.36-.01-.66-.15.08-.02-.25-.15-.44-.29-.09-.17.53.26.66.26l-.56-.33.11.08-.66-.26c.44.21.14.23-.05.13-.41-.26-.83-.52-.73-.59-.1.07-.64-.21-1.04-.38.4.25,0,.11-.13.08l-.57-.42c.68.31-.09-.16.1-.15.24,0,.62.25.96.44-.59-.54-1.01-.39-1.56-.78.02-.05.1-.08.36.07-.09-.08-.58-.19-.97-.44.09.08.28.28-.15.14l-.48-.36c-.61-.31-.27.03-.81-.15l.3.24c-.1.08-.69-.32-.76-.21.32.15.53.14.85.33.07.17-.45-.14-.67-.16-.67-.36-.52-.31-1-.63.06-.19.95.17.94-.11-.68-.3-1.71-.63-2.13-.89-.64-.2-.64-.04-.59.1-.26-.09-.38-.15-.53-.25l.31.06c-.78-.27-1.25-.35-2.04-.66-.46-.14-.32.03-.25.16l-.5-.17.07.05c-.15.08-.57-.14-.9-.25.02-.05.22,0,.22-.03-.28-.14-.72-.28-.98-.32.02-.05.26-.09.59.06.03.02,0,.04.04.06l.61.14c-.7-.18-1.06-.44-1-.56-.7-.17.51.31-.32.08-.99-.61-2.04-.63-2.53-1.15-.52-.09-1.15-.16-1.93-.4-.03.1-.53-.11-.5.03.71.34,1.45.24,1.99.61.35.06.26-.06.43-.07.3.09.57.19.59.26-.71-.16-.26.19-1.13-.09.08.12.8.31,1.1.44-.11.02-.03.1.16.2-.25.01-.77-.08-1.05-.09.11-.02-.05-.1.03-.1l-.95-.14c-.26-.15-.31-.25-.14-.26-.49-.2-1.38-.31-1.34-.46-.66-.17.18.15.22.21h-.06s.69.18.69.18c.02.19-.77-.28-.93-.14-.2.29-.94-.38-1.43-.47l.62-.07-.5-.09c.3,0,.35-.16.8-.13-.67-.2-1.6-.56-2.04-.62-.15-.12-.2-.22-.1-.28-.71-.04-1.03-.36-1.61-.52-.64-.08.59.29.11.28-.17-.11-.52-.16-.7-.17.2,0,.83.26,1.27.42-.34-.1-.33.03-.44.05l.56.18c-.08.13-.69-.18-.97-.18.2-.08.11-.11.31-.19-.5-.09-1.23-.27-1.63-.45-.23-.11.22-.01.36-.01-.09-.12-.5-.07-.57-.2.1-.06.3.07.48.09l-1.42-.4c.01-.05.37.02.59.1-.42-.17-.74-.22-1.3-.18-.48-.17-1.02-.38-.84-.42-.23-.02-.09.06-.1.11-.65-.19-.77-.02-1.17-.11l.28.17c-.62-.25-.19.12-.73-.09.12-.08.11-.2.04-.33-.12.08-.46-.1-.7-.15.13.13-.55-.03-.18.16-.59-.05-.82-.25-1.26-.21.26.09-.51,0-.3.11-.55-.12-.9-.32-.73-.4.19.05.48.17.48.08l-1-.21c-.24-.11-.55-.2-.56-.33-.35.06-.93-.3-1.21-.2.36-.02.6.17.73.22h-.16s.04,0,.08.01l-.48.1c.4.17.1-.11.69.02.47.3-1.22.03-.71.26.42.16.38-.04.76-.03l-.09-.02.83.1c.02.07-.23.07-.23.07.98.22,1.11.36,2.16.62-.07-.04-.23-.28.25-.21.35.03.36.15.64.23-.17-.02-.35.06-.56-.07v.14c-.84-.02-.46.21-1.54,0-.07.09-.86-.04-1.44-.2l.26.15c-.64.04-.08-.16-.89-.19-.28-.25-.82-.59-.36-.64-.54-.17-.75-.11-1.24-.22-.27-.21.19-.13.16-.29-.36-.06-.83-.1-.58.04l-.67-.21s.23.02.33.04c-.26-.09-.78-.13-.95-.11.06,0,.23.02.3.06-.29-.02-.82-.06-.86-.03.43.02.43.19.89.19-.05.03-.14.1-.36.03.34.17.7.23.83.36-.29-.14-.5-.08-.57-.07.27.09.81.18,1.01.18,0,.18,1.06.2.67.3.07-.05.47.04.67.12-.03.07-.57-.01-.82.02-1.08-.15.05-.12-.19-.22l-.81-.16c.08.04-.35.05.18.15-.27.05-.79.01-1.19-.16-.11.03.2.09.29.11-.1.03-.65.09,0,.26-.19-.05.34,0,.01-.14.27.04.97.27.67.3.32.04.95.11,1.22.14.06.09-.23-.02-.37-.01l.94.16-.25-.14c.67.21,1.14.11,1.7.17-.1.11-.56.03-.93.01.31.24.24-.03.81.12.07.04.08.08.04.11l.48-.02c.13.05.05.06-.01.05.81.03.02-.19,1.07-.02-.61-.21-.55-.03-1.07-.16-.28-.16.64-.04.8-.06.5.15.51.36,1.18.4-.47-.04-.05.12-.69-.02-.37-.01.18.1.23.2.17.01-.08-.16.38-.04l-.02.02.8.03c.7.23,1.65.22,2.11.49l-.08-.17c.45.1,1.09.25,1.42.29-.09.06-.4,0-.72-.05.8.21,1.53.31,2.1.34-.37-.2-.43-.21-.79-.37.57-.06.59.28,1.29.35-.02.14-.24.06-.1.24.3-.02.77.12,1.11.12.14.17-.19.21-.89.04-.5-.25-1.13-.19-1.53-.41l.24.15c-.53-.1-.85-.19-1.31-.24l.02-.02-.26.08.24.06c-.19.04-.72.04-.87,0,.76.16.86-.04,1.25-.07.68.17.88.48,1.35.48.02.07.38.24.06.22-.38-.06-.62-.21-.68-.13.39.1.23.11.83.25.14-.09.62-.09,1.07-.08.47.05,1.04.21,1.39.34-.45-.11-.93-.12-.84,0,.29-.05.85.33.76.13.52.15,1.39.39,1.41.55-.51-.08-.96-.3-1.38-.38.11.03.22.1.14.12l-.61-.18c.44.2.34.22.94.36-.03-.02-.1-.07-.04-.06.15.04.33.09.48.13l-.02.14c.46.06,1.27.46,2.1.6h-.08c.64.22.77-.02,1.48.15-.22,0-.14.09-.13.16.37.04.52.2.86.34-.38-.21.32-.05.04-.19.02-.14.74.09,1.1.22.16.24-1.16-.27-.67.08.36.13.48.06.23-.05.45.16,1.14.4,1.43.61.59.05.78.2,1.18.15-.29-.09-.35.02-.69-.17h.44c.53.19.91.44,1.26.58l-.4-.08h.03c-.16,0-.64-.21-.62-.1.38,0,.62.21,1.1.28h-.02c.83.18,1.3.7,1.88.65-.14-.05-.4-.25-.29-.26.16.13.65.29.6.35l-.17-.04c.44.19.7.3.87.34.16-.04.06-.15.4-.07.76.36-.39.07.11.35l.76.21.13.14c1.04.52,1.98.61,3.1,1.14-.04.13-.88-.19-1.16-.31.3.27.86.35,1.3.64.42.22.8.26.77.16.56.2.35.25.4.3.24-.05.87.34,1.31.52l-.02.09.71.24c-.17-.09.02-.08.05-.13l.17.09c-.54-.54-1.53-.6-2.08-1.18.22.07-.04-.11.18-.03.17.09.2.12.2.16.13-.01.43.07.07-.11.1-.15.8.25,1.32.45.34.3-.49-.06-.73-.08.19.08.38.09.63.27l-.13.09c.71.28.24,0,.45-.05.26-.05.61.31.8.41l-.22-.08c.49.34.68.28,1.14.55l.17.22c-.52-.45-.81-.24-1.11-.49.79.6-.31.13-.64.1.39.16.7.38.87.55.62.15,1.08.68,1.69.79.27.18-.29-.06,0,.11.53.33,1.1.67,1.7.96.29.19.21.21.26.3.69.46,1.17.76,1.7,1.05.26.14.52.29.81.47.13.08.26.17.4.26.04.03.07.06.1.09-.04,0-.08,0-.11,0,.04.05.03.08.19.09-.12.06-.05.07.04.16.04.04.08.1.08.14,0,.04-.12-.01-.22-.06-.15-.04.06.15-.11.19-.02-.05-.05-.15-.11-.17.13.02-.64.05-1.1.07-.51.02-1.01.05-1.52.07-1.02.05-2.07.11-3.23.17.02-.02.13-.04.19-.05-1.5.04-2.96.34-4.21.35-.23.05-.93.14-.71.22.29,0,.34.11.32.18-1.1.17-.55-.14-1.29-.06-.25-.16.46-.15.45-.31l-1.06.19c-.61-.01-1.2.13-1.73.09.23,0,.07-.14.46-.1-.06.01-.02.02-.08.03.89-.05.48-.12,1.27-.22-.7.1-1.64.21-2.27.23.15.11-.5.09-.67.19h-.04s-.38.11-.49.14l-.17-.14c-.27.05.08.07-.19.12-.38.07-1.76.22-1.87.06-.46.06-.59.16-1.07.19.03-.04.15-.07.16-.09-1.03.07-2.28.26-3.26.28-.79.14-1.46.24-1.95.41.21-.04.83-.08.46.06-.2.09-.53.11-.86.18.07-.09-.84.03-.19-.11-.19-.15-1.41.22-1.42.04-.15.07-1.08.17-1.41.32-.09-.07.49-.12.49-.18l-.42.08v-.05c-.83.07-.94.31-1.42.41l.02-.02-.32.08.36-.2c-.51.1-.77.26-1.34.38l-.06-.04-.34.1c.06-.02.07-.04.03-.05-.31.18-1.06.24-1.34.4-.23.01-.45-.13-.73.03l.03-.17c.76-.13.3.08,1.09-.1-.62-.12-2.26.13-3.35.23-.88.2-2.32.05-2.69.28l.09-.1c-.49-.03-.97-.09-1.45-.17-1.23-.08-2.41-.45-3.3-.66l-.2-.17c-.48-.05-1.26-.36-1.85-.78-.62-.41-1-.91-1.28-1.09-.13-.48.18.08.26.08-.16-.28-.54-.8-.41-1.2.04,0,.13.5.12.27.05-.27-.15-.37-.06-.69-.1.15-.24-.51-.22-1.04q0,.09-.02.13c-.08.07-.05-.31-.05-.53,0,0,.02.02.02.08-.01-2.68.14-5.76.52-8.56l.02.52c-.02-.41.1-1.12.14-1.34v.06c.24-.73-.06-.86.19-1.42v.12c.1-.9.34-1.42.36-2.31.15-.68.22-.6.36-1.06.05-.4-.02-.6-.04-.63l-.04.19c-.12.2-.02-.43-.02-.72-.17.19-.38.04-.65.83-.03.6-.31.55-.38,1.22.14.41-.27.94-.17,1.58-.1-.34-.16.72-.24.17-.14.24-.04,1.32-.21,1.79-.02-.08-.05-.07-.06-.18,0,.68-.14.45-.19.96h.14c.03.19-.08.24-.07.42.03-.14.12-.42.16-.26,0,.24.04.43.01.68-.05,0-.06-.18-.07-.3,0,0-.06.54-.13.57-.03-.2,0-.45-.06-.63-.11.71-.05.05-.19.39.17-.08,0,.63.01,1.02-.07.03,0-.27-.04-.37-.35.71-.05,1.11-.18,2.05-.02-.02-.03-.14-.03-.2.01.45-.17.75-.09,1.05-.06.43-.19.07-.23.73.18-.18-.08.78.1.8l-.14.5c.07.45.31-.1.27.77-.11.79-.29-.09-.41.37l.09.2-.09.39v-.06c.02.24-.03.66-.08.66-.04-.04-.03-.29-.07-.33.04.2-.04.57-.1.98-.05.4-.06.86.1,1.09-.04.27.07.85-.02.8.09.12.15.45.28.79.12.35.3.69.45.84-.07-.02.1.34.33.55-.23-.34-.03-.17.2-.01.16.34.94.86.97,1.04.46.22.36.02.51,0,.21.26,1.08.65.86.72-.23-.12-.73-.42-.68-.28.42.29.21.06.59.23-.04.01.21.21.12.22.22.1.53.23.85.37-.47-.26.36.02.08-.16l-.52-.08c-.57-.26-.08-.14-.28-.27,1.01.4.87.18,1.85.4.17.09.48.21.58.24-.32-.07-.3.09-.12.16.57.02.97.29,1.42.39-.39-.1-.16-.16-.02-.18.95.04.36.1.77.22,1.46.12,2.39.29,3.54.14l-.55-.11-.18.13c-.43-.09.07-.29.31-.39.06.04.76-.02.49.07l.67-.1c-.1-.05-.54,0-.23-.07.22.02.92,0,.49.11.36-.02.8-.12.72-.19.57-.07-.04.17-.29.25.45-.04.41.08.27.13l.63-.09c-.13.05-.13.1-.26.16.42,0,.7-.18,1.06-.12l.14-.13c1.14-.07,1.03-.04,2.07-.18l-.19-.05c.76-.27.6.04,1.63-.18.58-.14.96-.23.86-.35.33-.1.42-.03.58,0,.26-.11.81-.32,1.24-.3-.28.08-.5.14-.77.2.1.12.92-.1,1.37-.1.31-.1,1.24-.39,1.81-.57-.26-.07-.19-.24.3-.41-.07.09.68,0,1.03.02-.16.1.79.1.07.22-.22-.01-.33-.11-.61-.04.18.06.66.1,1.14.11-.03.05-.28.13-.52.16.13-.05.05-.07.03-.1Z"/>
      <path class="cls-3" d="m230.15,94.71l.08.02-.09-.05s.03.02.01.03Z"/>
      <path class="cls-3" d="m261.08,113.04s.11-.03.11-.05c-.05.01-.09.03-.11.05Z"/>
      <path class="cls-3" d="m271.84,111.25s-.02.01-.03.01c0,.01.02.01.03-.01Z"/>
      <path class="cls-3" d="m229.68,93.66l.19.02c-.07-.02-.1,0-.19-.02Z"/>
    </g>
  </g>
</svg>